<?xml version="1.0" encoding="utf-8"?>
<!-- Generator: Adobe Illustrator 26.2.1, SVG Export Plug-In . SVG Version: 6.00 Build 0)  -->
<svg version="1.1" id="languages" xmlns="http://www.w3.org/2000/svg" xmlns:xlink="http://www.w3.org/1999/xlink" x="0px" y="0px"
	 viewBox="0 0 1366 768" style="enable-background:new 0 0 1366 768;" xml:space="preserve">
<style type="text/css">
	.st0{fill:none;}
	.st1{font-family:'CormorantGaramond-Bold';}
	.st2{font-size:50px;}
	.st3{fill:#9B0000;}
</style>
<rect x="415.3" y="182.1" class="st0" width="133.7" height="44.9"/>
<rect x="1115.7" y="57" class="st0" width="220.3" height="51"/>
<rect x="341.3" y="60.2" class="st0" width="192.7" height="44.8"/>
<rect x="565.2" y="60.4" class="st0" width="170.8" height="44.6"/>
<rect x="767" y="59.5" class="st0" width="146" height="44.5"/>
<rect x="934.1" y="59.8" class="st0" width="151.9" height="44.2"/>
<rect x="548.2" y="311.5" class="st0" width="164.8" height="44.5"/>
<rect x="24.5" y="181.9" class="st0" width="149.5" height="45.1"/>
<rect x="193" y="182.3" class="st0" width="196" height="44.7"/>
<rect x="30.3" y="60.2" class="st0" width="97.7" height="44.8"/>
<rect x="575.3" y="180.6" class="st0" width="151.9" height="44.2"/>
<rect x="967.2" y="176.2" class="st0" width="165.8" height="48.8"/>
<rect x="185.7" y="60.6" class="st0" width="107.3" height="44.4"/>
<rect x="1190.2" y="178.5" class="st0" width="151.9" height="44.2"/>
<rect x="25.4" y="311.2" class="st0" width="127.6" height="44.8"/>
<rect x="201.4" y="311.2" class="st0" width="149.6" height="44.8"/>
<rect x="374.5" y="311" class="st0" width="149.6" height="44.8"/>
<rect x="771.3" y="178" class="st0" width="151.9" height="44.2"/>
<rect x="753.4" y="311" class="st0" width="211" height="57"/>
<rect x="1011.6" y="310.3" class="st0" width="134.4" height="46.7"/>
<rect x="1192.7" y="310" class="st0" width="148.3" height="47"/>
<rect x="1162.3" y="431.8" class="st0" width="178.7" height="45.2"/>
<rect x="26" y="433" class="st0" width="185.9" height="54"/>
<rect x="235" y="433" class="st0" width="112.3" height="54"/>
<rect x="380" y="433" class="st0" width="127" height="54"/>
<rect x="534.5" y="432.7" class="st0" width="158.6" height="45.3"/>
<rect x="722.1" y="432.1" class="st0" width="119.9" height="44.9"/>
<rect x="876.7" y="431.9" class="st0" width="251.4" height="45.1"/>
<rect x="15.7" y="552.4" class="st0" width="144.3" height="53.6"/>
<rect x="181.8" y="552.4" class="st0" width="208.2" height="53.6"/>
<rect x="395.2" y="553.1" class="st0" width="158.6" height="45.3"/>
<rect x="567.8" y="553.5" class="st0" width="167.2" height="44.5"/>
<polygon id="path" class="st0" points="1335,703.7 1140.4,704 1140.2,665.3 1334.8,665 "/>
<rect x="763.4" y="553.3" class="st0" width="194.6" height="44.7"/>
<rect x="986" y="553.2" class="st0" width="138" height="44.8"/>
<rect x="1147.1" y="554.5" class="st0" width="202.9" height="41.5"/>
<rect x="213.3" y="667.4" transform="matrix(1 -3.129898e-03 3.129898e-03 1 -2.1524 0.8503)" class="st0" width="114.6" height="41.4"/>
<rect x="384.6" y="668.5" transform="matrix(1 -2.460581e-03 2.460581e-03 1 -1.6943 1.1273)" class="st0" width="145.4" height="41.3"/>
<rect x="578.7" y="667.9" transform="matrix(1 -2.623357e-03 2.623357e-03 1 -1.8036 1.6978)" class="st0" width="135.2" height="40.9"/>
<rect x="763.2" y="667.9" transform="matrix(1 -2.205343e-03 2.205343e-03 1 -1.516 1.862)" class="st0" width="160.7" height="40.9"/>
<rect x="967.3" y="665.3" transform="matrix(1 -3.072011e-03 3.072011e-03 1 -2.0981 3.1416)" class="st0" width="108.6" height="38.5"/>
<rect x="30.1" y="672.2" transform="matrix(1 -2.628193e-03 2.628193e-03 1 -1.8213 0.2627)" class="st0" width="137.9" height="41.8"/>
<text transform="matrix(1 0 0 1 1115.6926 93.272)" class="st1 st2">portuguese</text>
<text transform="matrix(1 0 0 1 548.194 347.7483)" class="st1 st2">swedish</text>
<text transform="matrix(1 0 0 1 341.3243 96.4365)" class="st1 st2">sardinian</text>
<text transform="matrix(1 0 0 1 575.348 216.8125)" class="st1 st2">scottish</text>
<text transform="matrix(1 0 0 1 1162.261 468.0021)" class="st1 st2">ukranian</text>
<text transform="matrix(1 0 0 1 753.4199 347.2627)" class="st1 st2">norwegian</text>
<text transform="matrix(1 0 0 1 876.673 468.1467)" class="st1 st2">byelorussian</text>
<text transform="matrix(1 0 0 1 15.7353 588.683)" class="st1 st2">russian</text>
<text transform="matrix(1 0 0 1 181.784 588.6653)" class="st1 st2">bulgarian</text>
<text transform="matrix(1 0 0 1 213.3699 703.4985)" class="st1 st2">gypsy</text>
<text transform="matrix(1 0 0 1 578.7625 703.9644)" class="st1 st2">afghan</text>
<text transform="matrix(1 0 0 1 395.2167 589.3112)" class="st1 st2">serbian</text>
<text transform="matrix(1 0 0 1 25.9999 469.2845)" class="st1 st2">icelandic</text>
<text transform="matrix(1 0 0 1 1011.5947 346.5642)" class="st1 st2">danish</text>
<text transform="matrix(1 0 0 1 985.996 589.4011)" class="st1 st2">latvian</text>
<text transform="matrix(1 0 0 1 1192.7002 346.2082)" class="st1 st2">faroese</text>
<text transform="matrix(1 0 0 1 185.7493 96.8274)" class="st1 st2">ladin</text>
<text transform="matrix(1 0 0 1 1140.3796 701.2571)" class="st1 st2">armenian</text>
<text transform="matrix(1 0 0 1 1190.1826 214.7079)" class="st1 st2">flemish</text>
<text transform="matrix(1 0 0 1 934.0823 96.0544)" class="st1 st2">spanish</text>
<text transform="matrix(1 0 0 1 201.3716 347.4531)" class="st1 st2">frisian</text>
<text transform="matrix(1 0 0 1 24.5235 218.1463)" class="st1 st2">catalan</text>
<text transform="matrix(1 0 0 1 967.242 212.4469)" class="st1 st2">austrian</text>
<text transform="matrix(1 0 0 1 25.3716 347.4531)" class="st1 st2">dutch</text>
<text transform="matrix(1 0 0 1 565.2297 96.6819)" class="st1 st2">walloon</text>
<text transform="matrix(1 0 0 1 193.015 218.5855)" class="st1 st2">romanian</text>
<text transform="matrix(1 0 0 1 30.2836 96.4848)" class="st1 st2">irish</text>
<text transform="matrix(1 0 0 1 235.0486 469.2663)" class="st1 st2">czech</text>
<text transform="matrix(1 0 0 1 967.3493 701.4056)" class="st1 st2">greek</text>
<text transform="matrix(1 0 0 1 380.002 469.2495)" class="st1 st2">slovak</text>
<text transform="matrix(1 0 0 1 767.0184 95.7267)" class="st1 st2">french</text>
<text transform="matrix(1 0 0 1 384.5983 704.6159)" class="st1 st2">iranian</text>
<text transform="matrix(1 0 0 1 771.2869 214.2236)" class="st1 st2">german</text>
<text transform="matrix(1 0 0 1 763.4084 589.5452)" class="st1 st2">slovenian</text>
<text transform="matrix(1 0 0 1 534.4813 468.9117)" class="st1 st2">lusatian</text>
<text transform="matrix(1 0 0 1 567.8298 589.7532)" class="st1 st2">croatian</text>
<text transform="matrix(1 0 0 1 374.5141 347.2651)" class="st1 st2">english</text>
<text transform="matrix(1 0 0 1 722.0939 468.3547)" class="st1 st2">polish</text>
<text transform="matrix(1 0 0 1 763.2528 703.9958)" class="st1 st2">ossetian</text>
<text transform="matrix(1 0 0 1 30.1294 708.2476)" class="st1 st2">indian</text>
<text transform="matrix(1 0 0 1 1147.0557 590.7766)" class="st1 st2">lithuanian</text>
<text transform="matrix(1 0 0 1 415.2578 218.3882)" class="st3 st1 st2">italian</text>
</svg>
