<?xml version="1.0" encoding="utf-8"?>
<!-- Generator: Adobe Illustrator 26.2.1, SVG Export Plug-In . SVG Version: 6.00 Build 0)  -->
<svg version="1.1" id="Layer_1" xmlns="http://www.w3.org/2000/svg" xmlns:xlink="http://www.w3.org/1999/xlink" x="0px" y="0px"
	 viewBox="0 0 1017 659.6" style="enable-background:new 0 0 1017 659.6;" xml:space="preserve">
<style type="text/css">
	.st0{fill:#F2F2F2;}
	.st1{fill:none;stroke:#231F20;stroke-width:3;stroke-miterlimit:10;}
	.st2{fill:none;stroke:#002A74;stroke-width:3;stroke-miterlimit:10;}
	.st3{fill:none;stroke:#024B37;stroke-width:3;stroke-miterlimit:10;}
	.st4{fill:none;stroke:#938732;stroke-width:3;stroke-miterlimit:10;}
	.st5{fill:none;stroke:#5C0000;stroke-width:3;stroke-miterlimit:10;}
	.st6{fill:#938732;}
	.st7{fill:#002A74;}
	.st8{fill:#5C0000;}
	.st9{fill:#024B37;}
</style>
<g id="Basemap">
	<g id="_x3C_map_x3E_" transform="translate(0.000000,1280.000000) scale(0.100000,-0.100000)">
		<path class="st0" d="M9397.1,16084.7c-31-4.6-26.4-21.7,9.3-38.6c17.1-7.8,31-16.1,31-19.2s-9.3-12.4-20.7-21.7
			c-31-24.7-41-41.8-49.6-90.4c-4.6-24.7-13.1-52.6-19.2-61.8c-9.3-15.4-62.5-48.6-77.3-48.6c-3.2,0-2.3,23.9,0,54.2
			c4.6,47.9,3.8,54.2-9.9,63.5c-14.6,9.3-14.6,9.3,0.8,31.7c20.1,27.9,28.5,90.4,12.4,90.4c-12.4,0-35.6-37.8-122-201
			c-103.5-196.3-114.2-208.6-130.7-161.5c-13.1,37.1-10.8,57.9,10.8,98.2c10.8,20.1,19.2,40.3,19.2,45.6
			c0,18.6,38.6,96.7,71.1,142.1c31.7,45.6,32.5,47.9,17.7,57.9c-22.4,16.1-41.8,13.1-51.7-8.5c-9.9-23.2-18.6-24.7-25.4-4.6
			c-12.4,41-55.7,69.6-69.6,46.4c-3.2-4.6-9.9-31-16.1-58.9c-5.3-28.5-17.1-58.9-25.4-67.2c-27-30-33.2-49.6-24.7-79.6
			c4.6-15.4,7-29.3,5.3-31c-1.5-1.5-16.1,5.3-31.7,17.1c-16.1,10.8-31.7,19.2-35.6,19.2c-13.9,0-47.9-56.4-47.9-78.9
			c0-16.1-6.1-27.9-22.4-39.3c-25.4-19.2-26.4-20.7-6.1-82.7c8.5-26.4,15.4-49.6,15.4-51.1c0-2.3-8.5-1.5-19.2,1.5
			c-12.4,3.2-26.4-0.8-43.3-13.1c-23.9-17.1-23.9-17.1-19.2-0.8c5.3,17.1-16.1,43.9-43.3,52.6c-17.7,5.3-17.7,15.4-0.8,25.4
			c20.1,10.8,7.8,17.7-15.4,9.3c-13.1-5.3-19.2-12.4-16.1-18.6c2.3-7.8-3.2-12.4-15.4-14.6c-23.2-4.6-25.4,0-7,13.1
			c11.4,8.5,9.9,10.8-17.1,18.6c-41.8,11.4-56.4,11.4-43.9-0.8c5.3-5.3,9.3-27.9,9.3-50.2c0-23.2,5.3-54.2,11.4-69.6
			c14.6-34.7,14.6-41,0-41c-7,0-15.4,8.5-20.7,19.2c-8.5,18.6-41,34.7-71.8,34.7c-9.3,0-33.2-8.5-54.2-19.2
			c-21.7-11.4-42.4-17.7-51.7-14.6c-23.2,7-37.1-10.8-37.1-47.9c0-27.9,4.6-39.3,27.9-65c31.7-34.7,30-37.1-12.4-15.4
			c-40.3,20.1-61.8,20.1-61.8,0c0-18.6-17.7-56.4-39.3-84.2c-18.6-23.2-18.6-18.6,0,36.3c17.7,53.2,36.3,193.8,28.5,214.9
			c-5.3,13.9-6.1,13.9-19.2-2.3c-7.8-9.3-18.6-38.6-23.9-65.7c-5.3-31-25.4-79.6-55.7-135.3c-25.4-47.9-47.1-87.4-48.6-87.4
			s-13.1,10.8-25.4,23.2c-27,27-71.1,31.7-101.3,9.9c-18.6-12.4-18.6-12.4-13.9,9.9c4.6,23.9-6.1,52.6-17.7,45.6
			c-3.8-2.3-9.3-20.7-11.4-41c-8.5-65-10.8-69.6-36.3-78.1c-31-10.8-68-45.6-68-64.2c0-7,7-17.1,16.1-21.7
			c9.3-5.3,13.9-13.1,11.4-20.7c-3.1-6.1,2.3-17.1,12.4-24.7l17.1-13.9l-31-5.3c-72.6-13.9-203.9-83.4-203.9-108.1
			c0-11.4,16.1-20.1,39.3-20.1c23.2,0,17.7-9.9-16.1-29.3c-32.5-18.6-39.3-38.6-19.2-55.7c15.4-13.1,14.6-23.2-5.3-43.9
			c-15.4-16.1-15.4-18.6-3.8-31.7c35.6-39.3,2.3-61.8-104.3-71.8c-85.7-8.5-126-23.9-126-50.2c0-20.7,32.5-23.2,58.9-3.8
			c25.4,18.6,54.9,20.7,68,5.3c11.4-13.9,1.5-20.7-37.8-27.9c-23.9-3.8-27-7-27-27v-23.2l44.9,2.3c50.2,3.2,52.6-0.8,27-45.6
			c-18.6-33.2-23.2-35.6-37.1-18.6c-5.3,6.1-17.1,11.4-25.4,11.4c-8.5,0-23.9,7-33.2,16.1c-23.2,21.7-40.3,15.4-81.1-30l-33.2-35.6
			l22.4-6.1c13.1-2.3,47.9-10.8,77.3-17.1c34.7-7.8,58.9-18.6,67.2-28.5c19.2-23.2,9.3-33.2-14.6-14.6
			c-47.9,37.8-126.7,37.1-164.6-0.8c-12.4-12.4-26.4-22.4-31.7-22.4c-13.9,0-53.2-39.3-53.2-52.6c0-5.3,7.8-17.1,17.7-25.4
			l17.1-13.9l-28.5-0.8c-37.1,0-37.8-11.4-2.3-23.9c34.7-13.1,34.7-22.4,0-22.4c-31.7,0-33.2-3.8-9.9-23.2l17.7-13.9l-25.4-14.6
			c-56.4-31-94.2-56.4-94.2-64.2c0-13.1,34-17.1,116.7-13.9l78.1,2.3l-41-37.1c-23.2-20.7-51.7-42.4-63.5-49.6
			c-20.1-9.9-23.9-9.9-35.6,0.8c-18.6,17.1-34,15.4-53.2-5.3c-22.4-23.9-21.7-34.7,7-69.6c24.7-30,23.2-34.7-8.5-17.1
			c-34.7,20.1-51.1,14.6-68.8-21.7c-25.4-53.2-27.9-78.1-9.3-108.1c20.1-33.2,20.1-38.6,0.8-33.2c-8.5,2.3-22.4,6.1-30,8.5
			c-18.6,5.3-40.3-15.4-34-33.2c7.8-23.2,35.6-47.9,51.7-47.9c9.3,0,29.3,10.8,45.6,23.9c15.4,13.1,28.5,20.7,28.5,17.1
			c0-13.1-71.8-88-128.2-134.5c-31.7-25.4-57.2-51.1-57.2-55.7c0-5.3-17.7-25.4-40.3-45.6l-41-36.3l44.9-0.8
			c50.2,0,56.4-7.8,16.1-22.4c-17.7-6.1-26.4-13.9-23.2-20.1c3.8-11.4-22.4-50.2-34.7-50.2c-4.6,0-17.1,10.8-27.9,23.2
			c-23.2,27.9-49.6,31.7-46.4,6.1c0.8-12.4-3.8-17.7-23.2-23.2c-32.5-8.5-61-44.9-76.4-95.7c-7-23.9-22.4-54.9-35.6-69.6l-23.2-26.4
			h22.4c32.5,0,35.6-6.1,17.1-36.3l-16.1-25.4h19.2c41,0,129.2,43.3,129.2,63.5c0,4.6-11.4,6.1-27,4.6c-14.6-1.5-27-0.8-27,2.3
			c0,9.3,64.2,59.5,86.5,68c29.3,10.8,44.9-6.1,44.9-47.9c0-38.6-3.8-44.9-36.3-63.5c-25.4-14.6-36.3-31.7-43.9-66.5
			c-5.3-23.2-21.7-30-74.9-30c-43.3,0-49.6-5.3-27.9-23.9l17.1-14.6l-38.6,1.5l-38.6,2.3l2.3,31.7c3.2,37.1-10.8,52.6-39.3,45.6
			c-24.7-6.1-52.6-35.6-37.8-40.3c30-10.8-18.6-55.7-104.3-96.7c-27-13.1-48.6-24.7-48.6-27s8.5-10.8,19.2-19.2
			c12.4-9.9,19.2-22.4,19.2-37.8c0-25.4-7.8-27.9-34-9.9c-25.4,16.1-33.2,0.8-13.1-27c9.3-12.4,16.1-24.7,16.1-27
			s-28.5-4.6-63.5-4.6c-74.3,0-95.7-8.5-71.8-27.9c13.9-10.8,9.3-11.4-65.7-10.8c-127.5,2.3-131.3,2.3-131.3-15.4
			c0-13.1,5.3-15.4,33.2-15.4c35.6,0,83.4-26.4,98.8-54.9c7-13.1,4.6-21.7-13.1-46.4c-11.4-16.1-23.9-30-27-30c-3.8,0-7,16.1-7,35.6
			c0,65.7-27,81.9-77.3,47.9c-37.1-25.4-44.9-41-28.5-58.9c7-7.8,13.1-16.1,13.1-18.6c0-2.3-21.7-2.3-48.6-0.8
			c-41,3.2-51.1,1.5-69.6-13.1c-43.9-34.7-31-41,112.7-50.2c70.3-4.6,90.4-9.3,90.4-18.6c0-11.4-40.3-23.9-77.3-23.9
			c-27.9,0-40.3-3.8-44.9-13.1c-7-11.4-10.8-9.3-34.7,15.4c-34.7,37.8-66.5,36.3-99.6-5.3c-18.6-22.4-17.1-26.4,7-29.3
			c14.6-1.5,22.4-7.8,23.9-17.7c1.5-8.5,7.8-19.2,14.6-24.7c9.9-7.8,7.8-10.8-14.6-22.4l-25.4-13.9l37.8-7l37.1-7.8l-58.9-22.4
			c-88.9-34-81.1-41,57.2-48.6c43.9-2.3,83.4-7,87.4-10.8c9.3-9.3-30-20.7-102.8-31.7c-31.7-4.6-61-11.4-65-15.4
			c-16.1-16.1,52.6-78.1,73.5-65.7c11.4,7.8,30-10.8,30-30c0-8.5-5.3-31.7-12.4-51.1c-12.4-34.7-9.3-80.4,5.3-89.5
			c4.6-2.3,21.7,6.1,37.8,19.2c16.1,13.1,31.7,23.9,34,23.9c19.2,0-23.2-91.2-53.2-114.2c-17.7-13.9-17.7-16.1-6.1-25.4
			c7-6.1,27.9-9.9,49.6-9.3c34,0.8,37.1-0.8,30-13.1c-10.8-20.1-38.6-38.6-57.9-38.6c-15.4,0-98.8-66.5-118.2-93.5
			c-5.3-8.5-7.8-18.6-5.3-22.4c11.4-19.2,73.5,0.8,73.5,23.9c0,24.7,81.9,68.8,128.2,68.8c25.4,0,23.2-13.9-6.1-43.9
			c-23.2-23.9-23.9-25.4-7.8-25.4c23.9,0,20.7-11.4-7-31.7c-16.1-11.4-22.4-20.7-20.1-31.7c2.3-9.3-1.5-17.7-10.8-23.9
			c-18.6-11.4-19.2-23.2-0.8-17.7c7,1.5,28.5,6.1,47.9,8.5l34.7,5.3l-32.5-23.9c-18.6-13.1-33.2-29.3-33.2-35.6
			c0-14.6-7-14.6-26.4,0c-21.7,16.1-35.6,13.9-35.6-5.3v-16.1l-18.6,17.1c-17.7,17.1-17.7,17.1-22.4,1.5
			c-7-27.9,24.7-74.9,91.2-135.3c37.1-34,65.7-66.5,67.2-76.4c2.3-16.1,5.3-17.1,71.8-17.1c61,0,74.9,3.2,115.9,23.2
			c25.4,12.4,51.1,21.7,56.4,20.7c5.3-1.5,35.6,23.2,67.2,54.2c41,40.3,59.5,64.2,62.5,81.9c3.8,17.7,11.4,28.5,24.7,33.2
			c9.9,3.8,36.3,23.2,57.9,42.4c31,27.9,42.4,34,58.9,30c43.3-8.5,57.2,22.4,62.5,139.9c3.1,78.1,6.1,97.3,18.6,110.6
			c34.7,38.6,51.1,8.5,51.1-92.7c0-38.6,3.8-76.4,8.5-85.1c3.8-8.5,26.4-23.2,49.6-33.2c26.4-12.4,45.6-26.4,52.6-41l11.4-21.7
			l9.9,23.2c6.1,13.1,10.8,55.7,10.8,96.7c0.8,51.1,5.3,80.4,13.9,97.3c7,13.1,9.9,26.4,7.8,29.3c-3.2,3.2,9.3,19.2,27,37.8
			c56.4,57.2,73.5,141.4,51.7,258.8c-14.6,78.9-13.1,92,12.4,95.7c20.7,3.2,42.4,32.5,49.6,65c3.8,21.7,0,30-37.8,73.5
			c-30,34-44.9,58.9-50.2,83.4c-13.9,58.9-23.9,327.6-17.1,460.4c7.8,146.1,20.7,190.2,75.8,251.2c51.1,57.2,71.1,65.7,152.2,65.7
			c65,0,69.6,0.8,84.2,20.7c21.7,28.5,13.1,65-26.4,109.6c-36.3,41-37.8,29.3,21.7,168.5c48.6,115.2,61,170.8,71.1,325.3
			c3.8,67.2,10.8,118.9,16.1,125.2c5.3,6.1,20.1,11.4,32.5,11.4c31.7,0,72.6,19.2,83.4,38.6c5.3,9.9,6.1,29.3,3.2,51.1
			c-3.8,29.3-2.3,37.8,10.8,51.7c28.5,31,140.6,215.5,140.6,232.6c0,8.5-10.8,31.7-23.2,51.1c-12.4,19.2-23.2,40.3-23.2,46.4
			c0,7,13.9,26.4,31.7,42.4c18.6,18.6,43.9,57.2,62.5,95c34,71.1,79.6,125.2,105.9,125.2c9.3,0,27-5.3,40.3-12.4
			c49.6-24.7,71.1,5.3,79.6,111.3c3.2,34.7,9.3,72.6,13.9,83.4c7.8,17.1,13.1,19.2,36.3,16.1c15.4-1.5,71.8-23.2,126-47.1
			c122.9-54.2,129.8-54.9,129.8-8.5c0,20.1,8.5,56.4,20.7,85.1c22.4,54.9,21.7,68.8-8.5,137.5c-9.9,22.4-10.8,29.3-3.1,31.7
			c5.3,1.5,26.4,6.1,45.6,10.8c19.2,4.6,53.2,20.7,75.8,35.6c51.1,34.7,94.2,47.1,118.2,34.7c20.1-10.8,28.5-20.7,74.3-95.7
			c55.7-90.4,107.4-135.3,154.5-135.3c11.4,0,41.8,12.4,66.5,27s53.2,27,62.5,27c9.9,0,41.8-13.9,70.3-31c71.1-41,82.7-40.3,107.4,7
			c19.2,37.8,36.3,55.7,80.4,79.6l23.9,13.1l-1.5,71.8c-0.8,63.5,2.3,80.4,23.9,141.4c13.9,38.6,29.3,85.1,34.7,104.3l9.3,34.7
			l81.1,29.3c43.9,15.4,105.9,43.9,137.5,63.5c31,19.2,58.9,34.7,61.8,34.7c13.9,0,169.3-140.6,192.3-173.8
			c23.9-34.7,26.4-42.4,23.2-81.1c-2.3-32.5-9.9-54.2-32.5-90.4c-31.7-51.1-34.7-83.4-9.3-83.4c9.9,0,17.7,9.3,25.4,31
			c12.4,35.6,46.4,73.5,92,102c17.7,11.4,36.3,27,41,35.6c11.4,17.7,5.3,49.6-14.6,74.9l-14.6,19.2l-31-17.1
			c-17.1-9.9-32.5-17.7-34.7-17.7c-10.8,0-3.2,23.9,14.6,44.9c27.9,33.2,25.4,47.9-8.5,47.9c-15.4,0-25.4,3.2-22.4,7.8
			c8.5,13.9-11.4,37.8-57.2,68.8c-43.9,30-59.5,49.6-50.2,63.5c7.8,12.4,40.3,7,100.3-16.1c71.1-28.5,70.3-28.5,179.2,41.8
			l79.6,51.7l-24.7,31.7c-31,38.6-65.7,54.9-98.8,44.9c-26.4-7.8-29.3-2.3-12.4,20.1c16.1,21.7,13.9,39.3-5.3,44.9
			c-26.4,7-27.9,6.1-33.2-10.8c-4.6-15.4-4.6-15.4-25.4,0c-11.4,9.3-33.2,23.9-47.9,33.2c-16.1,9.9-30,27.9-35.6,42.4
			c-3.8,13.9-11.4,28.5-17.1,34c-13.9,13.9-57.9-37.1-77.3-88.9c-21.7-57.9-37.1-81.1-64.2-94.2c-31-16.1-35.6-2.3-14.6,43.3
			c9.9,20.7,15.4,40.3,12.4,43.3c-2.3,3.2-20.7-2.3-39.3-11.4c-19.2-9.3-34.7-15.4-34.7-13.1c0,1.5,7,15.4,16.1,30
			c9.3,16.1,13.9,33.2,10.8,42.4c-5.3,17.7,14.6,31.7,44.9,31.7c20.7,0,43.9,21.7,43.9,41.8
			C9560.9,16082.5,9479.9,16097.1,9397.1,16084.7z M6165.1,12696.6c6.1-16.1,8.5-29.3,4.6-29.3c-11.4,0-23.9,19.2-28.5,47.1
			C6134.9,12747.5,6147.4,12737.6,6165.1,12696.6z"/>
		<path class="st0" d="M8826.9,15943.4c0-21.7,16.1-54.2,27-54.2c11.4,0,34.7,24.7,34.7,37.1c0,9.3-38.6,32.5-54.2,32.5
			C8830.9,15959,8826.9,15951.9,8826.9,15943.4z"/>
		<path class="st0" d="M8121.6,15643.5c-1.5-8.5-13.1-17.1-27.9-19.2c-13.1-3.2-23.9-9.3-23.9-13.9c0-9.3,44.9-53.2,54.2-53.2
			c14.6,0,31,25.4,31,47.1C8154.7,15645.1,8129.9,15674.5,8121.6,15643.5z"/>
		<path class="st0" d="M9406.4,15614.3c-40.3-23.2-87.4-45.6-104.3-50.2c-41-11.4-74.9-50.2-100.3-113.6c-30-74.3-41-136.8-36.3-201
			l3.8-54.9l-26.4-13.9c-48.6-25.4-81.9-67.2-92-114.2c-4.6-23.2-10.8-42.4-13.1-42.4c-3.2,0-39.3,19.2-81.1,42.4
			s-85.7,42.4-97.3,42.4s-36.3-10.8-55.7-23.2c-92-61-153.9-27-255.8,141.4c-40.3,66.5-44.9,71.1-65.7,68.8
			c-37.8-4.6-57.2-21.7-57.2-51.7s-0.8-30-38.6-19.2c-78.1,22.4-13.1-52.6,142.9-164.6c134.5-97.3,209.4-169.9,243.4-239.6
			c22.4-46.4,26.4-61.8,31.7-146.1c3.8-71.8,8.5-96.7,17.7-103.5c8.5-6.1,12.4-21.7,12.4-52.6c0-30,6.1-58.9,20.1-92
			c21.7-51.1,21.7-42.4,6.1-221.7c-6.1-69.6,4.6-126.7,34.7-190.2c26.4-54.2,60.4-88,116.7-117.4c24.7-11.4,46.4-29.3,51.7-41
			c11.4-24.7,32.5-142.9,35.6-200.1l1.5-42.4h-40.3c-35.6,0-43.3-3.2-68-27c-15.4-14.6-59.5-73.5-98.2-130.7
			c-85.7-126.7-115.9-161.5-158.5-179.9c-51.7-23.2-109.6-109.6-110.6-165.3c0-30-8.5-37.8-61-51.1c-41-9.9-41.8-10.8-54.9-50.2
			c-7-22.4-23.2-52.6-35.6-68c-44.9-56.4-45.6-60.4-27-139.9c8.5-39.3,16.1-97.3,16.1-128.2c0-43.9,4.6-65.7,19.2-97.3
			c22.4-47.9,24.7-98.8,8.5-158.5c-14.6-52.6-30-201.6-23.9-231c6.1-26.4,40.3-44.9,82.7-44.9c32.5,0,46.4-9.3,44.9-27.9
			c-4.6-41.8,13.1-47.9,74.3-26.4c24.7,8.5,47.1,15.4,50.2,15.4s3.8-21.7,1.5-47.9c-2.3-35.6-0.8-52.6,7.8-64.2
			c11.4-14.6,13.1-14.6,122,10.8c71.8,17.1,133.6,37.1,173.8,56.4c34,16.1,81.1,33.2,104.3,36.3c23.9,3.8,74.3,19.2,113.6,34.7
			c43.9,17.7,93.5,30,132.8,34.7c47.1,5.3,69.6,11.4,92,27c35.6,24.7,305.2,316,375.5,406.6c74.9,95,129.2,173.8,162.3,234.9
			c23.9,43.3,29.3,61,30,97.3c0.8,59.5-22.4,93.5-102.8,149.9c-41,28.5-74.9,61-101.3,94.2c-20.7,28.5-38.6,54.2-38.6,56.4
			c0.8,2.3,18.6,17.1,40.3,31.7c72.6,48.6,76.4,80.4,17.7,146.7c-33.2,37.8-34.7,41-34.7,88.9c0,40.3-3.1,52.6-18.6,71.1
			c-26.4,31.7-35.6,72.6-35.6,162.3c0,98.2,11.4,153.9,35.6,176.2c11.4,10.8,18.6,26.4,18.6,41c0,32.5-35.6,137.5-96.7,283.5
			c-28.5,68-53.2,129.8-55.7,137.5c-2.3,7.8,7.8,33.2,25.4,61.8c17.1,26.4,49.6,85.7,73.5,132.1l43.9,85.1l-31,50.2
			c-39.3,65-76.4,103.5-126.7,132.1c-47.1,26.4-62.5,57.9-70.3,142.1c-3.2,43.3-0.8,67.2,9.3,101.3c11.4,34.7,12.4,47.1,5.3,58.9
			c-13.1,20.7-11.4,29.3,11.4,62.5c13.9,20.1,20.1,38.6,19.2,57.9c-0.8,20.1,8.5,45.6,31,85.7c57.2,103.5,41,153-84.2,256.5
			c-41,34-78.1,61-82.7,61C9483.7,15655.9,9446.5,15636.7,9406.4,15614.3z"/>
		<path class="st0" d="M8000.2,15518.5c-4.6-7.8-9.9-31-12.4-50.2c-4.6-29.3-3.1-34.7,7.8-34.7c18.6,0,51.1,34.7,51.1,54.2
			C8046.6,15527.7,8016.3,15548.5,8000.2,15518.5z"/>
		<path class="st0" d="M8127.7,15518.5c-29.3-32.5-10.8-155.4,21.7-145.2c20.7,6.8,36.3,55.7,34.7,106.6
			c-2.3,47.1-3.2,50.2-22.4,52.6C8149.3,15533.9,8137,15528.6,8127.7,15518.5z"/>
		<path class="st0" d="M7881.8,15402.6c-22.4-17.7-49.6-90.4-41.8-111.3c10.8-28.5,74.9,3.2,74.9,37.8c0,9.3,5.3,21.7,11.4,27
			c20.7,17.7,9.9,61.8-16.1,61.8C7905.9,15418,7892.8,15411,7881.8,15402.6z"/>
		<path class="st0" d="M8296.2,15205.4c-2.3-7,1.5-27,8.5-44.9c17.1-44.9,16.1-53.2-11.4-105.9c-20.1-39.3-21.7-47.1-13.1-61
			c8.5-13.9,7.8-19.2-3.2-37.1c-24.7-41-35.6-42.4-95-17.1c-29.3,13.1-76.4,28.5-104.3,34c-34,7.8-54.2,16.1-61,27
			c-12.4,18.6-28.5,20.1-34.7,3.2c-2.3-6.1-8.5-43.9-12.4-82.7c-8.5-74.3-29.3-133.6-50.2-141.4c-7-3.2-29.3,3.8-50.2,15.4
			c-30,16.1-41.8,19.2-53.2,13.1c-23.2-12.4-46.4-49.6-75.8-118.9c-28.5-68.1-51.1-98.2-72.6-98.2c-29.3,0-23.9-23.2,23.9-97.3
			c14.6-23.2,6.1-45.6-47.1-127.5c-59.5-90.4-92.7-160-98.2-204.8c-3.8-39.3-23.9-59.5-71.8-74.3c-51.1-14.6-54.9-23.9-65.7-159.2
			c-11.4-142.1-21.7-183.9-71.8-302.9c-48.6-115.2-51.1-126-29.3-135.3c38.6-17.7,52.6-102.8,23.9-151.4l-15.4-26.4l-73.5,2.3
			c-65.7,2.3-74.9,0.8-99.6-15.4c-40.3-27.9-72.6-74.9-92.7-138.3c-17.7-54.9-18.6-65.7-18.6-269.6c0.8-215.5,9.3-312.2,30-357.6
			c6.1-13.1,27-43.3,46.4-65.7c29.3-34.7,34-43.9,30-65.7c-7.8-39.3-29.3-78.1-51.7-88.9c-24.7-11.4-23.9-9.3-8.5-76.4
			c13.9-57.2,10.8-138.3-6.1-190.8c-5.3-16.1-22.4-43.3-38.6-60.4c-20.7-21.7-29.3-37.1-29.3-54.2c0-13.1-5.3-27.9-12.4-32.5
			c-9.3-7-13.1-30-17.7-93.5c-8.5-123.5-31.7-159.2-76.4-117.4l-19.2,17.1l4.6-57.9c5.3-68,27-155.4,56.4-229.5
			c31-79.6,138.3-299.1,164.6-339.2c40.3-59.5,50.2-153.9,19.2-184.5c-10.8-10.8-9.3-18.6,19.2-74.9c24.7-48.6,31-68.8,27-87.4
			c-3.2-17.7,0-27,10.8-37.1c14.6-13.1,17.7-13.1,79.6,3.2c35.6,9.3,69.6,20.1,74.9,23.9c4.6,4.6,9.3,23.2,9.3,41.8
			c0,56.4,23.2,95.7,57.2,95.7c11.4,0,19.2,7,25.4,23.9l9.3,23.9l81.9-5.3c96.7-6.1,95.7-7,132.1,68c34.7,72.6,67.2,235.6,88,438.1
			c14.6,142.1,17.7,149.9,86.5,221.7c35.6,37.1,60.4,69.6,60.4,78.9c0,18.6,11.4,21.7,18.6,4.6c3.8-10.8,7-10.8,27,0
			c28.5,13.9,47.1,40.3,47.1,64.2c0,14.6,2.3,16.1,14.6,9.3c8.5-3.8,22.4-7.8,31-7.8c23.9,0,21.7,34.7-3.2,51.1
			c-26.4,17.1-23.9,28.5,6.1,43.3c39.3,18.6,74.9,52.6,74.9,70.3c0,54.2-156.9,230.3-224.2,252.7c-55.7,18.6-65.7,46.4-65.7,185.5
			c0,106.6,1.5,115.9,25.4,189.2c28.5,85.7,39.3,153,25.4,161.5c-18.6,11.4-7,34.7,34,65.7c29.3,22.4,47.9,43.9,61.8,72.6
			c21.7,46.4,112.7,153,181.6,213.2c26.4,22.4,75.8,60.4,110.6,83.4c88,59.5,95,67.2,133.6,143.8c19.2,37.1,45.6,80.4,59.5,96.7
			c55.7,61.8,55.7,61.8,19.2,100.3c-28.5,31.7-31,36.3-27.9,70.3c2.3,21.7,13.1,51.1,27.9,74.9c13.9,21.7,24.7,50.2,24.7,63.5
			c0,22.4,11.4,39.3,85.1,126c17.7,20.1,26.4,41.8,33.2,81.1c8.5,43.9,13.1,53.2,24.7,53.2c8.5,0,16.1,6.1,17.7,13.9
			c3.2,17.1,6.1,17.1,51.1-6.1c31-15.4,49.6-19.2,98.8-19.2c48.6,0,61.8,2.3,65.7,12.4c2.3,7-3.2,44.9-12.4,84.2
			c-19.2,85.1-20.1,115.9-5.3,214.1c12.4,78.9,9.3,101.3-17.7,163.2c-8.5,20.7-16.1,53.2-16.1,71.8s-3.2,34-7,34
			c-12.4,0-17.7,26.4-23.2,123.5c-4.6,85.1-7.8,102.8-29.3,147.6c-28.5,62.5-89.5,123.5-203.1,206.3
			c-112.1,81.1-153,114.2-193.8,157.7C8317.7,15218.7,8303.8,15224.8,8296.2,15205.4z"/>
		<path class="st0" d="M7484.7,15147.6c-5.3-7.8-25.4-21.7-44.9-30c-31.7-13.9-43.9-32.5-27.9-42.4c3.1-2.3,19.2,2.3,35.6,10.8
			c16.1,8.5,31.7,13.9,33.2,12.4c1.5-2.3-7.8-19.2-20.7-38.6c-31.7-46.4-31.7-62.5,0-55.7c13.1,2.3,26.4,4.6,29.3,4.6
			c10.8,0,25.4,71.8,21.7,105C7506.3,15156,7497,15168.4,7484.7,15147.6z"/>
		<path class="st0" d="M7585.2,15135.9c-8.5-6.1-19.2-26.4-23.9-44.9c-4.6-18.6-16.1-40.3-24.7-47.9c-8.5-7.8-15.4-23.2-15.4-34.7
			c0-27-13.1-38.6-45.6-38.6c-52.6-0.8-124.5-46.4-114.2-73.5c9.9-23.9,53.2-11.4,95.7,28.5c13.1,13.1,27.9,20.7,31.7,18.6
			c4.6-2.3,23.9,7.8,43.3,22.4c20.1,14.6,37.1,27,39.3,27c1.5,0-0.8-10.8-5.3-23.9c-4.6-12.4-6.1-25.4-3.8-27.9
			c6.1-5.3,70.3,47.9,112.7,94.2c27.9,30,32.5,39.3,30,64.2c-3.1,38.6-27,42.4-54.9,9.9c-24.7-29.3-28.5-30-28.5-1.5
			C7621.5,15138.3,7606.1,15150.5,7585.2,15135.9z"/>
		<path class="st0" d="M8225.9,12088.6c-14.6-9.3-8.5-50.2,7.8-53.2c13.9-3.2,37.1,34,31.7,51.1
			C8261.2,12096.9,8240.5,12098.6,8225.9,12088.6z"/>
		<path class="st0" d="M8643,12046.9c-20.1-20.7-20.7-25.4-6.1-31c13.9-5.3,51.1,22.4,51.1,37.8
			C8687.8,12070.7,8661.6,12066.9,8643,12046.9z"/>
		<path class="st0" d="M9102,11860.5c-12.4-7-41-12.4-67.2-12.4c-53.2,0-126.7-25.4-139.1-47.1c-4.6-8.5-23.2-22.4-42.4-30
			c-42.4-18.6-54.2-40.3-42.4-82.7c4.6-17.1,13.9-35.6,20.1-41c14.6-12.4,14.6-23.2,0.8-23.2c-19.2,0-20.1-11.4-3.8-43.3
			c31.7-60.4,77.3-91.2,88.9-61c7,17.1,32.5,13.9,42.4-4.6c4.6-9.9,6.1-30,3.8-49.6c-7-43.3,8.5-57.9,43.9-43.3
			c47.1,19.2,64.2,18.6,107.4-3.8c22.4-12.4,65.7-45.6,95.7-74.3c30-29.3,59.5-52.6,64.2-52.6c4.6,0,17.7,5.3,27.9,12.4
			c12.4,7.8,26.4,10.8,41.8,7c28.5-6.1,63.5,10.8,85.1,41.8c19.2,27,20.1,51.1,3.2,90.4c-17.7,43.3-16.1,139.9,4.6,203.9
			c8.5,27.9,31.7,76.4,51.1,108.1l34.7,57.9l-95,4.6c-68.8,3.2-113.6,9.9-166.1,25.4C9164.7,11871.3,9129.7,11875.2,9102,11860.5z"
			/>
		<path class="st0" d="M8634.6,11698.2c-12.4-15.4,2.3-43.3,22.4-43.3c13.9,0,38.6,18.6,38.6,30
			C8695.6,11707.5,8650,11716.7,8634.6,11698.2z"/>
		<path class="st0" d="M8636.7,11569.3c-13.1-3.8-29.3-13.1-37.1-21.7c-17.1-19.2-13.9-57.9,5.3-61c18.6-3.8,96.7,36.3,110.6,56.4
			c9.9,13.9,9.3,16.1-2.3,24.7C8698.8,11579.3,8671.6,11579.3,8636.7,11569.3z"/>
		<path class="st0" d="M4346.9,11529.9c-8.5-22.4-20.1-61.8-25.4-86.5c-9.3-38.6-14.6-47.9-39.3-63.5
			c-38.6-24.7-52.6-47.1-52.6-85.1c0-33.2,13.1-51.1,43.9-60.4l17.7-5.3l-18.6-24.7c-29.3-39.3-66.5-118.9-66.5-142.9
			c0-11.4,3.8-25.4,9.3-31c7-6.8,5.3-9.3-7-9.3c-43.3,0-55.7-28.5-22.4-50.2c28.5-18.6,53.2-7.8,104.3,46.4l45.6,49.6l-25.4-55.7
			c-37.1-81.1-45.6-116.7-34-149.9c8.5-27,9.3-27,17.7-10.8c8.5,14.6,10.8,15.4,23.9,4.6c8.5-6.1,30-11.4,47.9-11.4h31.7v-40.5
			c0-22.4,2.3-53.2,5.3-68c3.8-21.7,0-37.8-22.4-85.1c-15.4-31.7-27.9-65-27.9-73.5c0-17.7,57.9-78.9,63.5-68
			c2.3,3.2,6.1,16.1,9.3,27.9c3.8,17.1,8.5,20.7,18.6,17.1c43.9-18.6,54.9-20.7,73.5-17.1c18.6,5.3,25.4,10.8,50.2,40.3
			c9.9,11.4,86.5,17.7,86.5,6.8c0-3.2-11.4-18.6-26.4-34.7c-33.2-36.3-47.9-81.9-38.6-116.7c5.3-19.2,15.4-29.3,41-41.8
			c20.1-9.3,37.1-24.7,41-34.7c10.8-29.3,8.5-86.5-4.6-118.2c-7-16.1-12.4-31-12.4-31.7s9.9-14.6,23.2-31
			c24.7-31,22.4-49.6-8.5-65.7c-11.4-7-19.2-5.3-34.7,7c-41.8,32.5-113.6,27-153-11.4c-27-27.9-26.4-47.1,3.8-53.2
			c17.1-3.8,22.4-8.5,18.6-17.1c-2.3-7,1.5-18.6,8.5-26.4c11.4-13.1,11.4-17.1-1.5-54.2c-20.7-57.9-64.2-102.8-117.4-122.9
			c-23.9-9.3-47.9-20.1-53.2-24.7c-10.8-8.5-13.1-51.7-5.3-81.1l4.6-17.7l34.7,20.7c31,17.7,37.1,19.2,63.5,10.8
			c16.1-4.6,46.4-9.9,65.7-11.4c27.9-3.2,43.3-9.9,66.5-31c26.4-23.9,33.2-26.4,50.2-20.1c37.8,14.6,67.2,32.5,98.8,60.4l31.7,28.5
			l-18.6-31c-52.6-89.5-71.8-103.5-152.2-112.7c-46.4-5.3-67.2-11.4-91.2-28.5c-50.2-35.6-190.8-210.9-179.2-223.3
			c3.2-2.3,31,6.1,61.8,19.2c75.8,32.5,88.9,34.7,128.2,20.7c51.1-17.7,58.9-15.4,85.1,27c38.6,62.5,89.5,84.2,139.1,57.9
			c12.4-6.1,36.3-13.1,54.2-16.1c28.5-4.6,31.7-3.2,31.7,10.8c0,21.7,13.9,23.9,202.4,32.5c173.8,7.8,207.1,13.1,258.8,43.3
			c30,17.7,64.2,51.7,64.2,65.7c0,3.2-20.1,7.8-43.9,10.8c-85.7,9.3-111.3,33.2-65,59.5c12.4,7,23.9,20.1,25.4,30
			c1.5,11.4,18.6,29.3,47.9,49.6c102,71.8,119.9,189.2,34,228c-47.1,21.7-118.9,20.7-142.1-0.8c-13.1-12.4-22.4-14.6-41.8-10.8
			c-32.5,7-36.3,21.7-12.4,52.6c51.1,66.5,23.9,126.7-73.5,164.6c-48.6,18.6-51.1,23.2-28.5,47.1c27.9,30,52.6,72.6,52.6,92
			c0,27-27,53.2-84.2,83.4c-30,15.4-59.5,36.3-66.5,45.6c-11.4,16.1-33.2,80.4-62.5,186.2c-14.6,54.2-62.5,109.6-122.9,144.6
			c-32.5,18.6-47.1,22.4-95,22.4c-57.2,0-115.2,16.1-106.6,30c3.2,3.8,17.7,11.4,34,16.1c79.6,26.4,139.1,78.1,74.3,66.5
			c-14.6-3.2-32.5-7.8-38.6-9.9c-24.7-9.3-8.5,10.8,28.5,36.3c56.4,37.8,86.5,76.4,130.7,165.3c45.6,92,63.5,156.9,45.6,167
			c-39.3,24.7-210.2,13.1-288.2-20.1c-85.1-35.6-88.9-34-54.2,26.4c10.8,18.6,21.7,47.1,23.2,62.5c1.5,23.9,12.4,37.1,74.3,95
			c68.8,65,71.1,68,57.9,81.1c-11.4,12.4-31.7,13.9-143.8,16.1l-130.7,2.3L4346.9,11529.9z"/>
		<path class="st0" d="M9016.9,11400.1c-20.7-8.5-46.4-22.4-56.4-32.5c-17.7-16.1-19.2-21.7-14.6-66.5c3.2-27,1.5-61.8-3.1-79.6
			c-11.4-41-55.7-89.5-92.7-100.3c-25.4-7.8-34-7-63.5,7.8c-27.9,13.1-38.6,24.7-53.2,55.7c-9.9,22.4-34.7,57.2-54.9,78.9
			c-35.6,37.8-37.1,38.6-71.1,34c-19.2-3.2-52.6-13.9-72.6-23.9c-41-20.7-51.1-37.1-59.5-97.3c-3.2-19.2-17.7-65.7-32.5-104.3
			c-19.2-48.6-28.5-86.5-31.7-126.7l-3.8-57.9l34,20.1c112.7,66.5,138.3,69.6,355.5,48.6c138.3-13.1,138.3-13.1,169.3,3.2
			c17.7,9.3,32.5,16.1,34.7,16.1c1.5,0,19.2-13.9,38.6-31c19.2-17.1,41-31,47.1-31c23.2,0,61-26.4,119.9-81.9
			c33.2-31.7,62.5-57.2,66.5-57.2c3.2,0,20.1,9.3,37.1,19.2c20.1,13.1,42.4,19.2,65,19.2c44.9,0,77.3,20.7,112.7,73.5
			c27,38.6,28.5,44.9,24.7,80.4c-5.3,45.6-30,97.3-51.7,108.9c-13.9,7.8-14.6,13.9-9.9,76.4l4.6,68.8l-33.2,23.9
			c-45.6,33.2-84.2,43.9-116.7,32.5c-13.1-4.6-30-8.5-36.3-8.5s-39.3,27.9-74.3,61.8c-57.2,55.7-103.5,85.7-129.8,85.1
			C9059.4,11414.8,9037.8,11407.8,9016.9,11400.1z"/>
		<path class="st0" d="M8073.5,11393.9c-54.2-33.2-99.6-109.6-98.8-166.1c0.8-43.3,13.1-62.5,33.2-51.7
			c27.9,14.6,47.9,54.2,54.2,106.6c4.6,35.6,10.8,54.2,20.7,61c32.5,23.9,41.8,34.7,39.3,47.1
			C8118.4,11409.3,8100.5,11410.2,8073.5,11393.9z"/>
		<path class="st0" d="M6713.6,11279.5c-12.4-6.1-37.1-24.7-54.2-41c-51.7-48.6-72.6-61-115.9-70.3c-22.4-4.6-55.7-18.6-72.6-31
			c-50.2-37.1-57.2-57.2-61-190.2c-5.3-165.3,0-197,37.1-234.1c23.2-23.2,31-37.1,34.7-67.2c3.1-20.7,7-43.9,9.3-51.7
			c5.3-20.7,34.7-36.3,76.4-41c30-3.2,43.3-0.8,64.2,12.4c18.6,11.4,23.9,18.6,17.1,22.4c-34.7,21.7-29.3,187,6.1,196.3
			c8.5,1.5,16.1,11.4,17.7,21.7c1.5,11.4,9.3,19.2,21.7,22.4c16.1,3.8,20.1,9.9,23.9,38.6c5.3,37.8,31,65,54.2,57.9
			c13.9-4.6,53.2,25.4,53.2,41c0,3.8-13.1,9.3-29.3,12.4c-43.9,7-58.9,27-61.8,88c-2.3,36.3,2.3,69.6,13.1,109.6
			c18.6,65.7,20.1,93.5,7,106.6C6743.1,11294.1,6741.4,11294.1,6713.6,11279.5z"/>
		<path class="st0" d="M8973,10935c-20.1-14.6-24.7-15.4-108.9-6.8c-112.1,10.8-315.2,10.8-343.9,0c-11.4-3.8-34.7-20.7-50.2-36.3
			c-27-25.4-29.3-31-29.3-71.1c0-49.6,17.1-115.2,39.3-152.2c18.6-30,71.1-56.4,112.1-56.4c41-0.8,93.5-25.4,105-50.2
			c7-14.6,7-28.5,0-57.9c-10.8-47.9-8.5-54.2,30-77.3c17.7-10.8,41.8-34,53.2-51.1c29.3-42.4,63.5-57.2,127.5-57.2
			c47.9,0,53.2,1.5,73.5,23.2c12.4,13.1,37.1,28.5,55.7,35.6c60.4,20.7,106.6,80.4,118.2,151.4c3.8,23.2,9.9,31,33.2,42.4
			c17.7,8.5,30,20.7,32.5,33.2c3.2,12.4,12.4,21.7,27,27c30,9.3,32.5,11.4,20.1,18.6c-5.3,3.8-10.8,23.9-11.4,45.6
			c-1.5,28.5-8.5,49.6-27,78.1c-40.3,62.5-108.1,116.7-147.6,116.7c-8.5,0-31,13.9-49.6,31s-34.7,31-36.3,30
			C8994.7,10951.1,8983.8,10944.3,8973,10935z"/>
		<path class="st0" d="M9492.3,10840.6c-50.2-46.4-71.8-55.7-112.1-47.9c-34,6.1-61-14.6-76.4-59.5c-9.9-30-9.9-35.6,0.8-54.2
			c17.1-27,5.3-62.5-20.7-65.7c-28.5-4.6-99.6-81.1-105.9-114.2c-2.3-14.6-13.9-37.8-23.9-50.2c-14.6-17.1-17.7-27-13.9-45.6
			c4.6-20.7,3.2-23.2-14.6-23.2c-37.1,0-104.3-30-114.2-52.6c-12.4-24.7-49.6-35.6-105.9-30c-23.2,2.3-48.6,0.8-56.4-3.2
			c-17.7-9.3-18.6-54.2-1.5-132.1c6.1-31,12.4-83.4,12.4-115.9c0.8-69.6-11.4-95-47.9-102.8c-22.4-4.6-38.6-23.2-38.6-42.4
			c0-5.3,16.1-24.7,35.6-43.9c32.5-32.5,34.7-37.1,32.5-69.6c-3.8-54.2,11.4-58.9,76.4-25.4l52.6,27l132.1,2.3
			c146.7,3.2,245.7-9.9,282.7-37.1c31-23.2,71.8-29.3,249.5-42.4c199.3-13.9,206.3-14.6,230.3-39.3c21.7-21.7,22.4-21.7,32.5,39.3
			c10.8,61.8,52.6,109.6,115.9,132.8c37.1,13.9,38.6,15.4,41,47.9c1.5,19.2-6.1,62.5-17.7,105.9c-23.2,80.4-21.7,104.3,7.8,117.4
			c16.1,7.8,24.7,7,42.4-2.3c28.5-14.6,56.4-14.6,87.4,0.8c54.2,27,62.5,46.4,35.6,71.8c-9.3,8.5-17.1,25.4-17.7,37.1
			c-0.8,20.1-3.8,21.7-42.4,27.9c-47.9,6.1-58.9,13.1-66.5,41.8c-2.3,10.8-17.7,35.6-34.7,54.2c-39.3,44.9-101.3,168.5-102,203.1
			c0,14.6,2.3,42.4,5.3,61.8c9.9,66.5-45.6,144.6-126,175.4c-33.2,12.4-35.6,12.4-66.5-3.8c-43.3-23.2-51.1-21.7-51.1,9.9
			c0,35.6-26.4,54.2-65.7,47.1c-20.7-3.8-27-3.2-27,5.3c0,14.6-17.1,20.7-39.3,15.4c-10.8-3.2-20.1,0-27,8.5
			C9540,10882.4,9534.7,10880.1,9492.3,10840.6z"/>
		<path class="st0" d="M7011.2,10848.3c-45.6-17.1-119.9-56.4-131.3-70.3c-9.3-10.8-9.3-17.1,0-37.1c5.3-13.9,10.8-34,11.4-45.6
			c0.8-12.4,7.8-28.5,16.1-37.8c21.7-24.7,98.2-74.9,122.9-81.1l22.4-5.3l-17.1,23.9c-22.4,31-21.7,37.8,6.1,51.7l23.2,12.4
			l-17.1,22.4c-22.4,31-13.1,63.5,20.7,69.6c21.7,3.8,23.2,7,22.4,36.3c-0.8,36.3-20.1,71.8-40.3,71.1
			C7044.4,10858.4,7025.8,10853.7,7011.2,10848.3z"/>
		<path class="st0" d="M3912.7,10634.4c-69.6-37.8-71.8-39.3-95.7-86.5c-21.7-43.9-17.1-48.6,39.3-40.3
			c43.3,6.1,69.6,18.6,92.7,43.9c17.7,19.2,56.4,91.2,56.4,105.9C4005.3,10674.5,3969.9,10665.2,3912.7,10634.4z"/>
		<path class="st0" d="M8385,10610.5c-31.7-31.7-34.7-37.1-21.7-41c20.7-7,53.2,3.8,61.8,19.2c9.3,17.1,9.9,51.7,2.3,55.7
			C8423.5,10646,8405.1,10630.6,8385,10610.5z"/>
		<path class="st0" d="M7428.4,10631.2c0-14.6,27.9-42.4,42.4-42.4c15.4,0,14.6,9.3-4.6,34
			C7449.3,10645.1,7428.4,10649.8,7428.4,10631.2z"/>
		<path class="st0" d="M4078.1,10612c-41.8-20.7-145.2-110.6-166.1-144.6l-16.1-26.4l20.1-28.5c36.3-50.2,51.7-66.5,57.2-58.9
			c19.2,28.5,66.5,80.4,74.3,80.4c4.6,0,15.4-12.4,23.2-27c41.8-77.3,126.7-74.9,167,4.6c20.7,40.3,20.1,59.5-3.8,68.8
			c-11.4,4.6-20.7,15.4-23.2,28.5c-12.4,58.9-21.7,80.4-43.3,98.2C4138.3,10631.2,4119.9,10632,4078.1,10612z"/>
		<path class="st0" d="M6503.5,10509.9c38.6-61,39.3-65.7,13.1-85.1c-27-20.1-28.5-26.4-7.8-31.7c8.5-2.3,15.4-9.9,15.4-17.1
			c0-26.4,96.7-136.8,154.5-176.9l19.2-13.9l-27,5.3c-29.3,6.1-66.5,24.7-107.4,54.2c-30,22.4-85.1,38.6-94.2,29.3
			c-3.1-3.2-3.1-21.7,1.5-40.3c5.3-23.9,4.6-36.3-1.5-43.9c-16.1-19.2-72.6-10.8-78.9,11.4c-6.1,23.2-105,34-131.3,13.9
			c-12.4-8.5-13.1-14.6-3.8-65.7c14.6-88-10.8-178.4-52.6-185.5c-30-6.1-30-17.1,0-44.9c24.7-22.4,28.5-30,23.9-47.9
			c-9.3-36.3-42.4-71.8-85.7-91.2c-23.2-9.9-41.8-22.4-42.4-27.9c0-5.3,0-25.4,0.8-43.9s-4.6-57.2-12.4-86.5
			c-14.6-57.2-17.1-44.9,31.7-176.2c11.4-31.7,11.4-35.6-2.3-61.8l-14.6-28.5l18.6-37.1c9.9-20.1,20.7-54.2,23.2-74.9
			c3.1-25.4,10.8-43.9,23.2-57.2c10.8-10.8,68-37.8,132.1-62.5c62.5-24.7,114.2-44.9,115.2-44.9c0.8-0.8-12.4-28.5-29.3-62.5
			c-30-61-64.2-157.7-71.1-199.3c-4.6-30,7.8-33.2,78.9-17.7c77.3,16.1,152.2,17.1,158.5,0.8c3.1-8.5,9.9-10.8,23.9-7
			c14.6,3.8,37.8-3.8,86.5-27.9l65.7-33.2l74.9,13.1c41,7.8,111.3,21.7,156,32.5c98.8,22.4,129.8,23.2,169.3,3.1
			c37.1-18.6,37.8-14.6,15.4,51.1c-9.3,24.7-13.9,53.2-11.4,62.5c2.3,9.3,37.1,45.6,77.3,80.4l73.5,63.5l-95,98.2
			c-91.2,95-138.3,158.5-149.2,203.1c-3.8,18.6-0.8,25.4,25.4,50.2c35.6,33.2,193.2,116.7,265,139.9
			c63.5,20.7,104.3,47.9,120.5,79.6c16.1,31,11.4,85.1-16.1,199.3c-24.7,102-52.6,169.3-81.9,197.8c-26.4,25.4-27,34-6.1,80.4
			c21.7,47.9,21.7,121.4-0.8,180.9c-23.9,62.5-47.1,85.1-81.1,79.6c-20.1-3.2-33.2,0-54.2,14.6c-98.2,67.2-86.5,66.5-185.5,15.4
			c-34-17.1-74.9-43.3-91.2-57.9c-26.4-23.9-31.7-25.4-64.2-20.7c-70.3,9.3-85.7,37.1-37.1,65.7c41,24.7,25.4,36.3-52.6,41
			c-46.4,3.2-65,7-71.8,16.1c-5.3,7.8-20.1,13.1-32.5,13.1c-32.5,0-37.1,8.5-13.9,26.4c23.9,19.2,20.1,37.8-9.9,50.2
			c-18.6,7.8-150.7,38.6-166.1,39.3C6480.3,10550.1,6488.9,10531.6,6503.5,10509.9z"/>
		<path class="st0" d="M7857.1,10500.6c-78.1-22.4-128.2-43.9-177.7-78.9c-23.2-15.4-88.9-43.9-157.7-68.8
			c-65-22.4-125.2-47.9-133.6-55.7c-12.4-11.4-14.6-20.1-10.8-46.4c2.3-18.6,7-47.9,9.3-66.5c3.8-25.4,0-44.9-15.4-83.4
			c-23.9-61-24.7-70.3-3.8-88.9c45.6-41,93.5-191.7,107.4-333.8c7-79.6,8.5-83.4,32.5-104.3c57.2-48.6,74.3-58.9,115.9-71.1
			c23.9-7,53.2-20.1,65-28.5c20.1-16.1,20.1-17.1,3.8-22.4c-8.5-3.8-16.1-9.9-16.1-13.9c0-13.9,54.2-62.5,69.6-62.5
			c16.1,0,18.6,6.1,15.4,37.8c-1.5,16.1,0.8,17.7,20.7,13.1c69.6-16.1,254.2-122.9,292.8-169.3c28.5-34.7,38.6-38.6,60.4-24.7
			c23.9,15.4,35.6,9.9,80.4-37.8c18.6-19.2,37.8-35.6,43.3-35.6s31.7,10.8,57.9,24.7c84.2,43.3,176.9,32.5,303.8-35.6
			c32.5-17.1,61.8-29.3,65-25.4c3.2,3.2,0,17.7-7,32.5c-28.5,59.5-20.1,74.3,119.9,217.9l92,93.5l-16.1,39.3
			c-8.5,21.7-22.4,57.2-31,78.9c-9.3,22.4-19.2,75.8-23.9,122c-11.4,113.6-11.4,113.6-45.6,150.7c-17.1,18.6-31,36.3-31,40.3
			c0,4.6,17.7,24.7,39.3,45.6c57.2,56.4,68.8,82.7,60.4,136.8c-9.3,59.5-47.9,208.6-68.8,262.6c-12.4,34-20.1,43.9-37.1,48.6
			c-39.3,9.9-337.7,16.1-441.9,9.3c-176.9-12.4-200.1-11.4-237.3,12.4c-23.2,14.6-34.7,28.5-40.3,48.6
			C7999.4,10523.8,7967.7,10531.6,7857.1,10500.6z"/>
		<path class="st0" d="M7188.9,10461.3c0-41,37.8-65.7,54.2-35.6c6.1,12.4,3.8,17.7-12.4,31
			C7206.7,10475.2,7188.9,10477.5,7188.9,10461.3z"/>
		<path class="st0" d="M3807.5,10414.2l4.6-36.3l-51.1,5.3c-47.1,4.6-51.1,3.8-54.9-10.8c-3.8-15.4-4.6-15.4-22.4,3.8
			c-29.3,31.7-74.3,21.7-104.3-23.9c-20.1-31.7-18.6-41.8,7.8-41.8c60.4,0,63.5-30,8.5-85.1c-20.7-21.7-38.6-42.4-38.6-46.4
			c0-17.1,40.3-31.7,104.3-39.3c37.1-3.8,71.1-9.3,74.9-11.4c13.1-8.5,2.3-23.9-32.5-51.1c-26.4-20.1-35.6-31.7-37.1-51.1
			c-2.3-20.7,0.8-26.4,17.7-32.5c10.8-4.6,31-7.8,43.3-7.8c34,0,20.1-12.4-29.3-27c-61-17.7-87.4-37.8-87.4-66.5
			c0-32.5-17.7-62.5-55.7-95.7c-18.6-15.4-27-26.4-20.1-23.9c7.8,2.3,31,6.1,52.6,9.3c36.3,4.6,38.6,3.8,38.6-12.4
			c0-9.9,6.1-18.6,15.4-20.7c10.8-3.2,15.4-10.8,15.4-26.4c0-17.1,3.8-22.4,15.4-22.4c23.9,0,111.3,41.8,129.8,61.8
			c10.8,11.4,26.4,18.6,47.1,19.2c23.9,1.5,38.6,8.5,61.8,29.3c36.3,32.5,50.2,40.3,85.7,47.9c14.6,3.2,34.7,13.1,44.9,21.7
			c17.1,16.1,17.7,16.1,41,2.3c31-17.7,38.6-10.8,61.8,57.2c43.9,130.7,18.6,320.7-54.9,405.6c-16.1,19.2-32.5,42.4-35.6,51.7
			c-4.6,16.1-7.8,14.6-46.4-28.5l-41-45.6l-47.9,51.7c-47.1,51.7-79.6,74.9-104.3,74.9
			C3804.4,10449.7,3802.9,10444.2,3807.5,10414.2z"/>
		<path class="st0" d="M6037.4,10148.4c-42.4-9.9-60.4-41-55.7-95c0.8-7.8,11.4-22.4,23.9-33.2c25.4-21.7,49.6-74.9,43.3-96.7
			c-8.5-27-49.6-53.2-81.9-53.2c-42.4,0-61,30-61,102c0,75.8-18.6,78.9-41.8,7c-7.8-23.2-32.5-79.6-54.9-125.2l-42.4-83.4l44.9-8.5
			c87.4-17.1,88-17.7,37.1-41c-24.7-11.4-47.9-20.7-51.7-20.7c-3.2,0-7.8-3.2-9.9-6.1c-1.5-3.2,20.7-4.6,50.2-3.2
			c51.1,3.2,55.7,2.3,105.9-28.5c28.5-17.1,63.5-35.6,78.1-40.3c23.9-8.5,27.9-7.8,41.8,9.3c12.4,15.4,13.9,25.4,9.9,61
			c-9.9,83.4-12.4,77.3,28.5,92.7c49.6,19.2,85.7,47.9,98.2,77.3c9.3,22.4,8.5,25.4-14.6,49.6c-29.3,30-29.3,35.6-3.8,59.5
			c30,27,65,84.2,65,105.9c0,24.7-37.1,60.4-74.3,70.3C6137.2,10156.9,6077.1,10157.5,6037.4,10148.4z"/>
		<path class="st0" d="M10304.2,9877.8c-17.1-9.9-37.1-15.4-59.5-13.9c-22.4,0.8-39.3-3.2-48.6-11.4
			c-16.1-14.6-71.1-27.9-118.2-28.5c-53.2,0-111.3-20.1-132.8-45.6c-13.9-17.1-20.1-36.3-24.7-75.8c-9.3-85.1-27.9-102-57.2-51.7
			c-16.1,27.9-17.7,27.9-53.2,23.2c-27.9-3.8-47.9-0.8-85.1,12.4c-47.9,17.1-49.6,17.1-74.9,3.2c-20.7-11.4-30-12.4-51.7-6.1
			c-13.9,4.6-63.5,12.4-109.6,16.1c-70.3,7-90.4,12.4-124.5,31.7c-68.8,39.3-229.5,56.4-353.8,37.8c-41.8-6.1-65.7-14.6-95-34.7
			c-21.7-14.6-43.3-26.4-47.9-26.4c-12.4,0-24.7-26.4-24.7-51.7c0-12.4,13.1-48.6,28.5-80.4c23.9-47.1,28.5-64.2,27-98.2
			c-1.5-44.9-11.4-71.1-28.5-71.1c-16.1,0-91.2-71.8-139.9-136l-44.9-57.9l13.1-49.6c19.2-72.6,18.6-78.9-13.9-74.9
			c-23.2,3.2-28.5,0-41.8-22.4c-35.6-57.9-23.9-126,27-155.4c41-23.9,139.9-44.9,208.6-44.9c65.7,0,96.7-7,115.9-27
			c7-6.1,20.7-11.4,31.7-11.4c59.5,0,197,56.4,233.5,95.7c27,28.5,65,39.3,139.9,37.8c105-0.8,229.5-41.8,285.2-94.2
			c21.7-20.7,23.9-26.4,23.9-71.8c0-48.6,0-49.6,25.4-56.4c22.4-7,25.4-11.4,33.2-50.2c9.3-47.1,19.2-69.6,37.1-85.1
			c7.8-5.3,12.4-21.7,12.4-40.3c0-24.7,3.2-31.7,15.4-34.7c24.7-7,13.9-20.7-23.9-30c-41.8-9.9-58.9-6.1-63.5,13.9
			c-3.8,12.4-7,13.9-19.2,7c-30-16.1-140.6-201.6-140.6-235.6c0-12.4,3.8-13.9,25.4-9.3c43.9,7.8,162.3,71.8,214.9,115.9
			c57.9,47.9,79.6,74.9,93.5,117.4c9.3,27,14.6,31.7,52.6,44.9c26.4,9.3,64.2,15.4,100.3,15.4c48.6,0.8,61.8-2.3,83.4-17.1
			c29.3-21.7,31-34,5.3-47.9c-10.8-5.3-19.2-13.1-19.2-16.1c0-9.9,47.1-20.7,127.5-30c160.7-18.6,169.9-53.2,32.5-121.4l-60.4-30
			l57.9-37.1c32.5-20.1,62.5-43.3,66.5-51.1c4.6-7.8,7.8-36.3,7.8-63.5c0-50.2,7.8-68,31-68c7,0,44.9,15.4,84.2,34.7
			c39.3,19.2,78.9,34.7,87.4,34.7c9.3,0,30,13.9,46.4,31.7l30,31.7l56.4-5.3c61.8-6.1,99.6,5.3,106.6,32.5
			c9.3,36.3-8.5,41-86.5,20.1c-27.9-7-59.5-9.9-71.1-7.8c-10.8,3.1-41,26.4-65.7,51.7c-27.9,27.9-53.2,46.4-63.5,46.4
			c-36.3,0-9.3,61,54.9,122c27.9,26.4,227.2,109.6,262.6,109.6c9.9,0,30,8.5,44.9,17.7c14.6,9.9,56.4,28.5,92.7,40.3
			c91.2,30,105,37.8,110.6,64.2c5.3,26.4,74.9,105,106.6,121.4c12.4,7,43.3,11.4,71.1,11.4c57.9,0,63.5,4.6,75.8,61.8
			c7,34.7,7,47.9-4.6,85.1c-17.7,57.2-11.4,86.5,27.9,144.6l31,44.9l-28.5,24.7c-47.9,42.4-252.7,118.2-288.2,106.6
			c-10.8-3.2-21.7,3.8-41,27.9c-78.9,98.2-85.1,100.3-147.6,61c-45.6-28.5-53.2-28.5-88-2.3c-23.2,17.7-35.6,21.7-74.3,21.7
			c-41.8,0-47.9,2.3-61.8,21.7c-11.4,14.6-16.1,31.7-15.4,53.2c0.8,17.1-3.1,41-9.3,51.7c-9.9,20.1-55.7,69.6-65,71.1
			c-2.3,0-22.4,1.5-44.9,1.5c-25.4,0.8-44.9,6.1-53.2,13.9c-18.6,19.2-28.5,81.1-17.1,112.1c14.6,41.8-17.1,99.6-69.6,126
			C10350,9892.6,10331.4,9894.1,10304.2,9877.8z"/>
		<path class="st0" d="M5829,9653.1c-112.7-41.8-113.6-41.8-154.5-31c-20.7,5.3-48.6,7.8-61,4.6c-43.3-9.3-79.6-60.4-67.2-93.5
			c3.8-10.8,11.4-11.4,43.3-7.8c37.8,5.3,37.8,5.3,53.2-23.9c18.6-36.3,32.5-49.6,83.4-74.9c47.1-23.9,67.2-48.6,60.4-76.4
			c-9.3-36.3,19.2-33.2,68,7c26.4,22.4,36.3,23.2,36.3,4.6c0-27.9,40.3-95,68-113.6c53.2-36.3,83.4-20.7,74.9,37.1
			c-6.1,40.3,13.9,94.2,31.7,87.4c17.1-6.1,36.3,29.3,30,56.4c-6.1,28.5-37.1,62.5-56.4,62.5c-20.7,0-30,13.1-36.3,54.2
			c-7,41.8-19.2,57.9-66.5,81.1c-19.2,9.9-39.3,23.9-44.9,30C5879.3,9672.4,5880.7,9672.4,5829,9653.1z"/>
		<path class="st0" d="M5445.7,9550.3c-31-13.9-57.2-47.9-57.2-74.3c0-79.6-52.6-151.4-146.1-200.1c-73.5-37.8-85.7-49.6-85.7-77.3
			c0-32.5-13.1-39.3-76.4-39.3c-76.4,0-136,16.1-156,41.8c-17.1,21.7-76.4,56.4-76.4,44.9c0-3.8,5.3-23.9,11.4-44.9
			c6.1-20.7,17.1-65.7,23.2-99.6c7-34,13.9-69.6,16.1-78.9c3.1-16.1,0.8-17.7-29.3-17.7c-34.7,0-113.6-10.8-142.9-20.1
			c-13.1-3.8-26.4,3.8-59.5,35.6l-42.4,40.3l-36.3-23.2c-20.7-13.9-50.2-26.4-71.8-28.5c-81.9-10.8-92.7-13.1-102.8-24.7
			c-7.8-9.9-7-13.9,5.3-22.4c43.9-31.7,44.9-33.2,40.3-81.1l-3.8-45.6h25.4c13.9,0,54.9-12.4,90.4-27.9c34.7-15.4,88.9-34,118.2-41
			c50.2-12.4,54.2-14.6,54.2-34.7c0.8-13.9,10.8-30,33.2-50.2c26.4-23.9,32.5-34.7,32.5-56.4c0-43.9,51.7-108.9,112.1-139.9
			c51.7-26.4,51.7-25.4,38.6-179.9c-17.1-201-40.3-336.9-72.6-422.6c-12.4-31.7-10.8-43.9,6.1-43.9c17.7,0,28.5-13.9,25.4-32.5
			c-1.5-7,6.1-18.6,17.1-25.4c39.3-26.4,94.2-36.3,224.8-42.4c148.4-7,214.9-23.2,252.7-59.5c20.1-19.2,28.5-21.7,71.1-21.7
			c66.5,0,85.1,13.9,102,74.3c15.4,55.7,43.3,85.7,111.3,122c66.5,35.6,98.8,33.2,251.2-14.6c67.2-20.7,127.5-38.6,133.6-38.6
			c17.7,0,51.7,20.7,107.4,67.2c30,24.7,65.7,51.1,78.9,57.9c22.4,12.4,54.9,54.9,54.9,72.6c0,4.6-9.9,7-23.2,4.6
			c-29.3-3.8-54.9,12.4-85.1,54.2c-18.6,24.7-23.2,40.3-23.2,71.1c-0.8,21.7-5.3,47.9-11.4,58.9c-17.1,29.3-13.9,37.1,19.2,57.9
			c17.1,10.8,31,23.9,31,28.5c0,5.3-9.3,33.2-20.7,62.5c-17.1,43.3-19.2,55.7-11.4,68c13.1,20.7,11.4,37.8-7.8,66.5
			c-22.4,32.5-37.8,31.7-91.2-1.5c-23.2-13.9-43.3-24.7-44.9-23.9c-0.8,1.5,5.3,14.6,13.9,30c10.8,17.7,14.6,34,11.4,46.4
			c-3.8,15.4,0,22.4,19.2,36.3c13.9,9.9,30,30,36.3,45.6c6.1,15.4,25.4,42.4,41.8,61c17.1,17.7,32.5,42.4,34.7,54.9
			c3.8,16.1,11.4,25.4,26.4,31c27,9.3,38.6,31,70.3,129.2c13.1,42.4,32.5,95,42.4,118.2c9.9,22.4,18.6,50.2,18.6,61.8
			c0,17.7-6.1,21.7-48.6,36.3c-26.4,9.3-89.5,34-141.4,54.9c-51.1,21.7-113.6,43.9-139.1,49.6c-31.7,7-64.2,22.4-105.9,51.1
			c-77.3,52.6-100.3,64.2-128.2,64.2c-27,0-33.2,8.5-39.3,50.2c-3.8,27.9-6.1,31-31.7,34.7c-43.9,7.8-81.1,34.7-98.8,74.3
			l-16.1,34.7l-38.6-5.3l-39.3-5.3l-12.4,32.5c-10.8,27.9-15.4,31.7-36.3,31.7C5480.5,9560.3,5458.8,9555.7,5445.7,9550.3z"/>
		<path class="st0" d="M7381.9,9523.3c-116.7-32.5-269.6-106.6-304.4-148.4c-15.4-17.7-18.6-28.5-15.4-43.9
			c8.5-36.3,58.9-102,146.1-189.2c85.7-86.5,141.4-129.2,168.5-129.2c7.8,0,34.7,20.1,60.4,43.9l46.4,43.9l36.3-9.9
			c20.1-6.1,54.2-15.4,74.9-21.7c59.5-17.1,189.2-23.2,200.1-9.3c5.3,7,22.4,10.8,43.9,10.8c44.9,0,95,31,110.6,69.6
			c8.5,19.2,25.4,35.6,58.9,56.4c60.4,37.1,60.4,53.2,0.8,94.2c-51.7,35.6-179.2,100.3-197.8,100.3c-7,0-23.2-8.5-36.3-19.2
			c-12.4-10.8-26.4-19.2-30-19.2c-13.9,0-84.2,71.8-88.9,90.4c-6.1,23.2-32.5,37.1-93.5,49.6c-38.6,7.8-48.6,13.1-50.2,25.4
			c-2.3,13.9-8.5,16.1-41,17.7C7449.9,9536.4,7409.8,9530.9,7381.9,9523.3z"/>
		<path class="st0" d="M6062.3,9335.5c-5.3-5.3-9.3-23.9-9.3-41.8c0-65.7,27.9-98.8,55.7-65.7c17.1,21.7,17.7,47.9,2.3,78.1
			C6096.3,9334.8,6074.6,9347.7,6062.3,9335.5z"/>
		<path class="st0" d="M8124.6,9200.3c-21.7-17.1-27.9-18.6-41-10.8c-9.3,5.3-24.7,7.8-38.6,4.6c-28.5-7-75.8-47.1-75.8-65.7
			c0-20.7-54.2-65.7-97.3-80.4c-58.9-20.7-74.9-30-87.4-51.7c-23.2-41,13.9-117.4,78.1-159.2c27.9-18.6,39.3-21.7,81.1-20.1
			c74.9,2.3,107.4,13.9,116.7,40.3c8.5,23.9,16.1,27.9,72.6,35.6c19.2,2.3,40.3,9.9,44.9,15.4c6.1,7.8,23.9,11.4,51.1,11.4
			c34.7,0,43.9,3.2,61,20.7c10.8,11.4,19.2,23.9,19.2,26.4c0,26.4,170.8,30,198.5,5.3c20.7-18.6,42.4-17.1,62.5,3.8
			c15.4,16.1,71.1,128.2,71.1,142.1c0,9.3-113.6,54.9-161.5,65c-63.5,13.1-116.7,4.6-175.4-27.9c-62.5-34.7-81.1-33.2-94.2,7.8
			c-11.4,35.6-30,57.9-47.1,57.9C8156.2,9221.1,8139.2,9211.8,8124.6,9200.3z"/>
		<path class="st0" d="M7436,9031.9c-48.6-40.3-65.7-46.4-95.7-35.6c-42.4,16.1-60.4,9.9-126.7-41.8
			c-69.6-54.9-72.6-61.8-51.7-119.9c14.6-41,14.6-76.4,0.8-81.9c-6.1-2.3-22.4,1.5-35.6,8.5c-31.7,16.1-82.7,16.1-142.9,0
			c-25.4-7-84.2-19.2-131.3-27.9c-46.4-8.5-95-17.7-106.6-20.1c-13.1-2.3-34,1.5-51.7,9.3c-42.4,19.2-54.2,12.4-54.2-31
			c0-27.9,4.6-40.3,20.1-55.7c20.1-20.1,20.1-20.1,88-5.3c13.9,3.2,23.9-0.8,34-11.4c18.6-20.1,42.4-20.7,75.8-0.8
			c14.6,7.8,51.7,20.7,83.4,27.9c31.7,7,65,13.9,74.3,16.1c11.4,2.3,21.7-3.2,34.7-20.7c48.6-64.2,79.6-78.1,217.9-98.2
			c80.4-11.4,85.7-11.4,167.6,4.6c201.6,40.3,254.2,72.6,255.8,160.7c1.5,61.8,7.8,74.3,48.6,93.5l37.8,18.6l-4.6,47.1
			c-6.1,62.5-25.4,126-44.9,145.2c-8.5,8.5-25.4,14.6-41,14.6c-14.6,0-56.4,8.5-92.7,19.2C7501,9074.3,7486.2,9073.5,7436,9031.9z"
			/>
		<path class="st0" d="M8369.5,8966.9c-17.1-3.8-42.4-18.6-63.5-37.8c-31-28.5-39.3-32.5-71.1-32.5c-23.2,0-41.8-4.6-50.2-12.4
			c-7.8-7-30-14.6-48.6-16.1c-28.5-3.8-39.3-9.3-54.9-30c-24.7-32.5-65.7-43.9-139.9-40.3c-45.6,2.3-60.4,6.1-87.4,24.7
			c-17.7,12.4-33.2,20.7-34,19.2c-1.5-1.5-8.5-13.1-16.1-24.7c-7.8-12.4-25.4-27-39.3-33.2c-18.6-7.8-25.4-14.6-21.7-22.4
			c2.3-7-1.5-18.6-8.5-26.4c-17.7-20.1-35.6-80.4-35.6-122c0-33.2,17.1-74.9,43.9-108.1c37.8-44.9,190.8-126,241.1-127.5
			c11.4-0.8,31.7,6.1,43.9,15.4c29.3,21.7,83.4,35.6,223.3,59.5c64.2,10.8,129.2,23.2,144.6,27.9c30,7.8,60.4,38.6,60.4,61
			c0,60.4,167,293.6,210.2,293.6c27,0,23.9,18.6-9.3,47.9c-31,27-90.4,52.6-125.2,52.6c-7.8,0-23.9,7-35.6,15.4
			C8472.3,8968.5,8412.7,8976.2,8369.5,8966.9z"/>
		<path class="st0" d="M9365.4,8941.5c-21.7-6.1-28.5-10.8-24.7-20.1c9.3-23.9,130.7-222.5,154.5-252.7
			c31.7-40.3,33.2-47.1,43.3-193.2c3.8-68,10.8-126.7,15.4-131.3c11.4-11.4,41,24.7,84.2,106.6c22.4,41,46.4,78.9,54.9,82.7
			c7.8,4.6,28.5,5.3,45.6,3.2c48.6-7.8,81.1,28.5,47.1,52.6c-7.8,5.3-23.2,27.9-34,48.6c-10.8,21.7-33.2,56.4-51.1,77.3
			c-36.3,43.3-37.8,55.7-15.4,84.2c20.1,25.4,15.4,40.3-15.4,47.1c-13.1,3.2-27.9,11.4-31.7,20.1c-6.1,10.8-16.1,14.6-37.8,14.6
			c-19.2,0-31.7,3.8-34,11.4c-6.1,15.4-55.7,38.6-104.3,49.6C9414.9,8952.3,9405.6,8952.3,9365.4,8941.5z"/>
		<path class="st0" d="M9237.1,8880.3c-39.3-25.4-125.2-59.5-186.2-73.5c-37.1-9.3-43.9-8.5-61,3.2c-40.3,28.5-51.7,33.2-78.9,28.5
			c-16.1-2.3-58.9,1.5-95.7,7.8c-37.1,7-74.9,9.9-84.2,7c-8.5-2.3-34-18.6-56.4-35.6c-22.4-17.1-43.3-28.5-47.1-26.4
			c-9.9,6.1-91.2-119.9-134.5-209.4c-40.3-84.2-55.7-100.3-127.5-136.8c-22.4-11.4-41-21.7-41-23.2c0-0.8,13.9-16.1,31-34
			c17.1-17.1,31-37.1,31-43.9c0-25.4,23.9-57.9,54.2-73.5c33.2-17.1,49.6-40.3,43.9-61.8c-9.3-35.6,55.7-76.4,118.9-77.3
			c59.5,0,105.9-23.2,72.6-35.6c-18.6-7.8-13.9-20.7,19.2-53.2c20.7-20.1,31-37.1,31-51.1c0-21.7,14.6-30,54.2-30
			c10.8,0,41-7.8,65.7-16.1c41-14.6,57.2-16.1,142.9-12.4c108.1,5.3,152.2,15.4,220.2,50.2c74.9,38.6,102.8,43.9,167.6,33.2
			c67.2-10.8,117.4-32.5,129.2-54.2c7-12.4,16.1-16.1,39.3-16.1c34,0,46.4,13.9,46.4,51.1c0,51.1,51.1,203.9,68,203.9
			c3.8,0,12.4-7.8,19.2-17.1c10.8-17.1,13.1-17.1,33.2-6.1c12.4,7,30,23.9,39.3,37.8c16.1,23.2,17.1,28.5,7,42.4
			c-14.6,23.2-59.5,25.4-92.7,5.3c-36.3-22.4-89.5-21.7-110.6,1.5c-22.4,24.7-23.9,31-37.1,165.3c-7,67.2-15.4,136-20.1,153
			C9481,8645,9371.4,8839,9328.2,8883C9302.1,8909.7,9280.6,8909,9237.1,8880.3z"/>
		<path class="st0" d="M6458.6,8764.4c-92.7-10.8-145.2-23.2-181.6-41.8c-44.9-22.4-110.6-92.7-122.9-129.8
			c-6.1-18.6-17.7-33.2-32.5-40.3c-39.3-20.7-24.7-37.8,31.7-38.6c30,0,36.3-3.2,50.2-25.4c44.9-73.5,46.4-74.9,71.1-77.3
			c13.1-1.5,38.6,1.5,56.4,6.1c25.4,7,34,13.9,43.3,35.6c10.8,25.4,50.2,57.2,71.1,57.2c5.3,0,14.6-11.4,20.7-25.4
			c6.1-14.6,16.1-30,22.4-35.6c17.7-14.6,45.6,5.3,74.9,53.2c13.1,21.7,27,38.6,31.7,38.6c3.8,0,17.7-7,30-16.1
			c13.1-9.3,28.5-13.9,37.1-10.8c16.1,4.6,78.1,68.8,78.1,80.4c0,3.8-13.9,5.3-31,3.1c-27-3.8-33.2-1.5-57.2,22.4
			c-25.4,25.4-43.3,68.8-43.3,105c0,9.9-3.8,24.7-7.8,33.2C6592.4,8774.5,6556.7,8776,6458.6,8764.4z"/>
		<path class="st0" d="M6911.6,8619.2c-13.9-3.8-36.3-14.6-49.6-24.7c-17.1-12.4-33.2-17.1-57.2-15.4c-29.3,0.8-33.2-0.8-33.2-15.4
			c0-8.5-9.9-25.4-23.2-36.3c-12.4-11.4-23.2-26.4-23.2-34c0-7-7.8-17.1-16.1-22.4c-22.4-11.4-71.8,3.2-88,26.4l-12.4,17.1
			l-22.4-24.7c-20.7-23.2-38.6-67.2-38.6-96.7c0-24.7-19.2-14.6-71.1,36.3c-57.2,57.2-75.8,63.5-75.8,24.7
			c0-37.8-20.7-51.7-98.2-68.8c-37.1-7.8-70.3-17.1-74.3-20.7c-3.8-3.8,0-21.7,9.3-43.3c9.3-20.1,16.1-41,16.1-45.6
			s-14.6-20.7-32.5-36.3l-31.7-27.9l20.1-37.1c24.7-43.3,25.4-49.6,7.8-61.8c-12.4-9.3-11.4-12.4,7-40.3
			c19.2-28.5,60.4-56.4,85.1-56.4c14.6,0,29.3-16.1,29.3-32.5c0-7.8,4.6-13.9,9.9-13.9c4.6,0,45.6,27.9,90.4,61.8
			c90.4,69.6,80.4,68,171.6,22.4c105-52.6,126.7-79.6,149.2-190.2c13.9-66.5,22.4-79.6,131.3-198.5c80.4-87.4,188.5-185.5,228-205.6
			c14.6-7.8,47.9-17.7,73.5-23.2c71.8-14.6,98.8-28.5,137.5-69.6c27-28.5,45.6-41,71.1-47.1c31.7-7.8,37.1-13.1,60.4-55.7
			c20.1-39.3,31.7-51.1,63.5-67.2c45.6-22.4,69.6-61,99.6-158.5c29.3-95,31-113.6,11.4-138.3c-19.2-23.9-45.6-90.4-45.6-112.7
			c0-19.2,30-33.2,44.9-20.7c20.7,17.1,57.2,77.3,69.6,115.2c10.8,34,18.6,43.3,47.9,60.4c30,17.7,34.7,23.9,37.1,49.6
			c2.3,27-1.5,33.2-43.9,74.3c-26.4,24.7-47.1,47.1-47.1,50.2c0,11.4,27.9,56.4,63.5,102c30,37.8,43.3,48.6,58.9,48.6
			c31,0,95.7-41,130.7-81.1c29.3-34.7,30-35.6,43.9-20.1c12.4,13.9,12.4,16.1,1.5,38.6c-18.6,34.7-93.5,92-224.2,169.9
			c-65,37.8-126.7,78.1-139.1,89.5l-20.7,19.2l16.1,26.4c21.7,35.6,13.9,39.3-77.3,39.3c-70.3,0-75.8,1.5-118.9,27
			c-71.8,42.4-111.3,99.6-160,231c-28.5,74.9-65,116.7-129.2,146.7c-38.6,18.6-41,18.6-51.1,4.6c-18.6-25.4-33.2-9.3-37.8,43.9
			c-3.1,26.4-7,71.8-9.9,99.6c-3.8,40.3-2.3,54.9,7.8,70.3c11.4,17.1,11.4,22.4,0,59.5c-20.7,71.8-20.1,72.6,112.1,129.2
			c18.6,7.8,38.6,18.6,43.9,24.7c13.9,13.9,13.9,87.4,0,120.5c-9.3,22.4-17.1,27.9-63.5,42.4c-50.2,14.6-64.2,22.4-112.7,57.2
			C7009.7,8621.5,6948.5,8628.5,6911.6,8619.2z"/>
		<path class="st0" d="M7571.3,8560.5c-48.6-16.1-138.3-33.2-245.7-46.4c-70.3-9.3-83.4-46.4-43.3-126
			c36.3-72.6,74.3-95.7,103.5-63.5c17.7,19.2,35.6,19.2,74.3-0.8c39.3-19.2,48.6-16.1,48.6,17.1c0.8,22.4,4.6,27.9,30,39.3
			c15.4,7.8,28.5,18.6,29.3,23.9c0,4.6,0.8,20.7,1.5,35.6c1.5,23.2,7.8,31.7,46.4,61C7709.7,8572.1,7689.5,8599.1,7571.3,8560.5z"/>
		<path class="st0" d="M7631.6,8483.9c-30-13.9-43.9-37.8-37.8-69.6c4.6-25.4-0.8-38.6-17.7-43.9c-5.3-2.3-17.7-17.7-27.9-34
			c-9.3-17.1-25.4-35.6-35.6-41c-24.7-13.1-61.8-5.3-78.9,16.1c-13.1,17.1-13.1,17.1-24.7,2.3c-17.7-23.9-13.9-39.3,19.2-78.1
			c17.1-19.2,33.2-44.9,35.6-56.4c8.5-40.3,21.7-66.5,51.1-99.6c25.4-29.3,27.9-35.6,20.1-51.7c-10.8-23.9,9.3-54.2,61.8-92
			c53.2-38.6,65.7-43.9,121.4-51.1c43.3-4.6,50.2-3.8,46.4,5.3c-2.3,6.1-31.7,50.2-65,97.3c-67.2,94.2-116.7,183.9-116.7,211.7
			c0,9.9,3.8,24.7,7.8,33.2c7.8,13.1,17.1,14.6,91.2,14.6c118.2-0.8,316-19.2,357-34.7c19.2-7,40.3-14.6,46.4-16.1
			c7.8-2.3,16.1,7,27,29.3c12.4,26.4,19.2,33.2,34.7,33.2c27,0,30-24.7,3.8-34.7c-17.1-6.1-18.6-9.9-11.4-22.4
			c3.8-8.5,11.4-17.7,15.4-20.1c9.3-6.1,9.9-55.7,0.8-61c-3.8-2.3-10.8-15.4-15.4-28.5c-7.8-22.4-6.1-25.4,28.5-62.5l35.6-38.6
			l-26.4-21.7l-27-21.7l21.7-20.1c11.4-10.8,20.7-22.4,20.7-26.4c0-11.4-18.6-24.7-35.6-24.7c-10.8,0-25.4-9.9-38.6-27
			c-13.9-18.6-26.4-27-36.3-25.4c-12.4,1.5-17.7-3.8-22.4-23.9c-4.6-15.4-13.1-27-22.4-29.3c-8.5-2.3-14.6-10.8-14.6-20.7
			c0.8-37.1,59.5-136,81.1-136c5.3,0,27.9,17.7,48.6,40.3c32.5,33.2,43.3,40.3,65.7,40.3c42.4,0,98.8-38.6,118.9-81.9l17.7-36.3
			l57.2,27c45.6,21.7,71.8,28.5,129.2,34c85.7,7.8,95.7,15.4,95.7,70.3c0,36.3,2.3,41,33.2,67.2c34,29.3,40.3,45.6,20.7,52.6
			c-17.1,7-55.7,72.6-65.7,112.1c-7.8,30-7,40.3,3.1,59.5c13.9,27,16.1,92,4.6,109.6c-7,9.9-10.8,8.5-25.4-9.3
			c-9.9-12.4-20.1-21.7-22.4-21.7c-3.2,0-27.9,15.4-54.9,34.7c-34,23.2-52.6,42.4-58.9,59.5c-19.2,51.7-32.5,72.6-60.4,91.2
			c-18.6,12.4-34,33.2-46.4,61.8c-22.4,51.1-65.7,98.2-96.7,104.3c-24.7,6.1-139.1-17.1-158.5-31.7c-13.1-8.5-13.1-12.4,0-61.8
			c12.4-44.9,12.4-53.2,3.1-62.5c-19.2-19.2-36.3,7-36.3,54.9c0,39.3-9.3,58.9-27.9,58.9c-4.6,0-10.8-7-13.1-15.4
			c-9.3-36.3-99.6-10.8-238.8,66.5C7698.8,8492.5,7669.4,8501,7631.6,8483.9z"/>
		<path class="st0" d="M7603,8219.8c-3.8-13.1,1.5-34,14.6-63.5c31.7-68.8,129.2-210.2,176.9-255c23.9-23.2,43.3-47.9,43.3-54.9
			c0-25.4,44.9-76.4,101.3-116.7c31-20.7,60.4-38.6,65-38.6c7,0,8.5,9.9,6.1,34c-6.1,55.7,43.3,129.2,78.1,115.9
			c9.9-3.8,11.4,0.8,9.9,25.4c-1.5,27.9,0,29.3,21.7,31.7c41.8,3.8,43.3,6.1,26.4,35.6c-9.3,17.1-14.6,37.1-13.9,56.4
			c1.5,22.4-2.3,34.7-14.6,47.1c-9.3,9.3-17.1,21.7-17.1,27.9c0,21.7,15.4,51.1,27,51.1c12.4,0,23.9,33.2,15.4,46.4
			c-3.1,4.6-15.4,6.1-30,3.2c-17.7-3.2-38.6,1.5-72.6,15.4c-34,14.6-81.1,23.9-174.6,35.6c-165.3,20.1-165.3,20.1-176.2-5.3
			c-5.3-12.4-9.9-23.2-10.8-24.7c-1.5-1.5-13.1,9.9-26.4,25.4C7623,8245.1,7610.1,8246.8,7603,8219.8z"/>
		<path class="st0" d="M8660.8,7996.4c-11.4-10.8-19.2-27.9-19.2-40.3c0-30,42.4-101.3,70.3-116.7c37.1-21.7,27.9-71.1-13.9-71.1
			c-22.4,0-30-16.1-36.3-73.5c-6.1-58.9,3.2-89.5,37.8-128.2c27-30,30-38.6,27-78.1c-0.8-16.1,3.8-23.9,18.6-30
			c16.1-7.8,32.5-6.1,85.7,7c85.1,21.7,114.2,21.7,177.7-2.3c37.1-13.9,68-20.1,105-20.1c70.3,0,107.4,18.6,134.5,68.8
			c35.6,65,105.9,88.9,170.8,57.9c27.9-13.1,27.9-13.1,43.3,5.3c23.9,29.3,5.3,80.4-27.9,75.8c-21.7-3.2-17.7,19.2,8.5,54.9
			c10.8,13.9,31,52.6,43.9,85.1c20.7,49.6,29.3,61,54.9,75.8c45.6,24.7,52.6,32.5,41.8,45.6c-4.6,6.1-16.1,10.8-24.7,10.8
			c-8.5,0-51.1,16.1-93.5,37.1c-70.3,32.5-83.4,36.3-133.6,36.3c-51.1,0-60.4-3.2-130.7-38.6l-74.9-38.6l-139.9,0.8
			c-139.9,1.5-248.9,15.4-271.9,34.7c-6.1,4.6-10.8,20.7-10.8,34.7C8703.4,8022,8687.8,8024.1,8660.8,7996.4z"/>
		<path class="st0" d="M3868.7,7903.7c-15.4-6.1-27-17.7-30-30c-7.8-31-31.7-46.4-78.9-51.1c-38.6-3.2-44.9-6.1-57.2-27.9
			c-13.9-23.9-13.9-23.9,10.8-69.6c13.1-24.7,28.5-66.5,33.2-92l8.5-46.4h47.9c35.6,0,49.6-3.1,57.2-13.1
			c11.4-15.4,45.6-29.3,71.8-29.3c9.3,0,32.5,7,51.1,15.4c41.8,18.6,108.9,20.7,126,3.2c7-6.1,12.4-20.1,12.4-30
			c0-9.3,7-25.4,14.6-35.6c17.1-21.7,13.9-34-26.4-94.2c-23.9-35.6-28.5-51.7-34-103.5c-3.8-36.3-11.4-69.6-20.1-81.9
			c-8.5-13.1-11.4-27.9-8.5-40.3c5.3-22.4-16.1-78.9-36.3-95.7c-17.7-14.6-16.1-34.7,4.6-68.8c28.5-45.6,28.5-51.1,3.8-101.3
			l-23.2-47.1l16.1-33.2c20.7-43.3,20.7-43.9-7.8-79.6c-50.2-62.5-44.9-88,26.4-123.5c56.4-28.5,78.1-51.1,126-132.1
			c41.8-70.3,78.9-108.1,98.8-100.3c6.1,2.3,18.6,19.2,28.5,37.1c23.9,42.4,46.4,57.9,103.5,72.6c60.4,14.6,231.8,34.7,302.9,34.7
			c30,0,65,3.8,75.8,7.8c11.4,4.6,47.1,34.7,80.4,68c32.5,33.2,71.1,65,85.7,70.3s34.7,13.1,44.9,17.1c10.8,3.8,17.1,13.1,17.1,23.9
			c0,24.7,31,75.8,77.3,129.2c24.7,27.9,38.6,51.7,38.6,64.2c0,10.8-12.4,46.4-27.9,80.4c-17.7,37.8-25.4,63.5-21.7,69.6
			c57.9,82.7,166.1,244.9,176.2,263.5c15.4,31,56.4,54.9,156.9,91.2c85.7,31,160.7,78.1,191.7,119.9c27,36.3,27,115.9-0.8,115.9
			c-5.3,0-13.9-7-18.6-15.4c-7-13.1-16.1-15.4-54.2-15.4c-25.4,0-59.5,5.3-75.8,11.4c-16.1,7-41,10.8-54.9,9.9
			c-23.2-2.3-27,0.8-34,20.7c-3.8,13.1-11.4,25.4-16.1,28.5c-4.6,3.1-44.9,6.1-89.5,6.1c-169.3,0-281.2,24.7-337.7,73.5
			c-17.7,14.6-41,30-53.2,34.7c-21.7,8.5-118.9,16.1-377.9,31c-90.4,4.6-160.7,13.1-201,23.2c-46.4,11.4-85.7,15.4-159.2,14.6
			c-83.4,0-103.5,2.3-132.8,15.4C3939,7917.7,3904.2,7919.2,3868.7,7903.7z"/>
		<path class="st0" d="M6551.4,7692.8c-8.5-1.5-24.7-9.9-36.3-18.6c-18.6-13.1-21.7-20.1-20.7-51.1c0.8-52.6,17.1-138.3,27.9-149.2
			c21.7-21.7,81.1,67.2,92,136.8C6621.7,7665,6593.9,7701.1,6551.4,7692.8z"/>
		<path class="st0" d="M8192.6,7666.5c-33.2-10.8-41.8-41.8-26.4-94.2c9.9-34.7,11.4-63.5,8.5-138.3
			c-9.3-188.5-6.1-214.1,29.3-238.8c33.2-22.4,51.1-45.6,51.1-65.7c0-9.9,3.2-17.7,7-17.7c12.4,0,59.5,60.4,85.7,108.9
			c13.1,25.4,29.3,48.6,35.6,51.1c17.1,6.1,13.1,21.7-21.7,89.5c-32.5,60.4-33.2,65-31.7,128.2c2.3,95.7-23.9,146.1-90.4,173.1
			C8221.2,7670.3,8206.5,7671.8,8192.6,7666.5z"/>
		<path class="st0" d="M8459.2,7599.3c-7.8-8.5-22.4-16.1-31.7-16.1c-51.1,0-99.6-117.4-71.1-172.3c37.1-72.6,115.2-84.2,197-29.3
			c20.1,13.1,46.4,23.9,58.9,23.9c27.9,0,65,18.6,75.8,37.8c13.1,24.7,8.5,72.6-9.9,104.3c-25.4,46.4-57.9,61-137.5,65
			C8479.2,7615.4,8471.4,7613.9,8459.2,7599.3z"/>
		<path class="st0" d="M3783,7559c-33.2-9.9-37.1-22.4-21.7-77.3c30-108.9-2.3-317.7-69.6-449.7c-20.7-40.3-26.4-60.4-24.7-85.1
			c2.3-30,3.8-32.5,26.4-33.2c28.5-1.5,47.9-10.8,71.1-36.3c17.1-17.7,17.7-22.4,9.9-64.2c-13.1-80.4-17.7-160.7-9.3-182.4
			c6.1-17.1,15.4-21.7,52.6-30c68-13.9,85.1-12.4,110.6,12.4c18.6,17.7,23.2,28.5,23.2,54.2c0,21.7,7.8,47.9,23.2,75.8
			c27,50.2,28.5,67.2,9.9,98.8c-13.1,22.4-13.1,23.2,11.4,68c28.5,52.6,28.5,54.9-20.7,136c-20.1,32.5-27.9,51.7-21.7,53.2
			c5.3,1.5,23.2,7.8,40.3,13.9l31,10.8l0.8,43.3c0,25.4,5.3,49.6,11.4,57.2c6.1,7.8,12.4,38.6,15.4,71.8
			c3.2,51.1,8.5,65.7,32.5,105.9c35.6,56.4,37.8,92,8.5,126c-16.1,20.1-25.4,23.9-52.6,23.9c-22.4,0-39.3-5.3-51.7-16.1
			c-16.1-13.9-26.4-15.4-74.9-13.1c-48.6,2.3-57.9,5.3-74.9,23.9C3817.7,7569.8,3819.3,7569.2,3783,7559z"/>
		<path class="st0" d="M9316,7556.1c-33.2-13.9-51.7-43.3-44.9-72.6c3.2-15.4,0-31.7-10.8-51.1c-23.2-43.3-7-105,34-132.1
			c26.4-17.1,50.2-9.3,96.7,31.7c46.4,41,73.5,49.6,187.7,56.4l86.5,5.3l-44.9,20.7c-56.4,26.4-78.9,43.9-108.9,85.7
			c-29.3,41-34,43.3-63.5,42.4c-13.1-0.8-32.5,4.6-42.4,11.4C9384,7569.8,9349.2,7570.8,9316,7556.1z"/>
		<path class="st0" d="M10522.9,7559c-17.1-3.1-58.9-6.1-92.7-6.1c-66.5-0.8-154.5-21.7-244.9-57.9
			c-78.1-31.7-121.4-57.9-158.5-96.7l-33.2-34.7l-68,9.9c-85.1,12.4-220.2,20.1-236.4,13.9c-29.3-11.4,37.1-67.2,80.4-67.2
			c20.7,0,20.1-13.1-1.5-20.1c-66.5-20.1-99.6-36.3-95.7-46.4c5.3-14.6-9.3-17.1-142.1-22.4c-216.4-9.3-302.9-43.9-304.4-122
			l-0.8-32.5l60.4,1.5c32.5,1.5,59.5-0.8,59.5-3.8c0-3.2-5.3-12.4-11.4-20.1c-17.1-23.2-13.9-42.4,11.4-71.8
			c27.9-31,27.9-33.2,7.8-58.9c-20.1-25.5-19.2-47.1,2.3-61.8c17.1-11.4,17.1-11.4,1.5-17.7c-38.6-14.6-36.3-47.1,3.8-62.5
			c26.4-10.8,31-16.1,31-34.7c0-12.4-4.6-23.9-11.4-26.4c-18.6-7-13.9-18.6,23.2-57.9c18.6-20.1,36.3-44.9,38.6-54.9
			c4.6-17.7,7-18.6,41-13.1c58.9,9.9,62.5,8.5,101.3-27.9c20.7-19.2,44.9-34.7,54.2-34.7c10.8,0,21.7-8.5,30-24.7
			c36.3-67.2,74.3-87.4,135.3-71.8c43.9,11.4,80.4,43.3,90.4,81.1c13.9,48.6,17.1,51.1,65.7,41c54.9-11.4,192.3-76.4,228-108.1
			c51.7-44.9,75.8-49.6,141.4-29.3c56.4,17.1,113.6,47.9,149.2,81.1c18.6,17.1,42.4,32.5,53.2,35.6c30,7.8,87.4-0.8,103.5-15.4
			c19.2-17.7,33.2-15.4,66.5,10.8c35.6,28.5,53.2,34,73.5,23.2c21.7-11.4,19.2-28.5-7.8-69.6c-41-61.8-25.4-126.7,20.1-84.2
			c28.5,26.4,41.8,55.7,41.8,92c0,17.7,3.8,38.6,7.8,47.1c9.9,17.7,41.8,19.2,69.6,3.1c27-15.4,55.7-13.9,132.8,5.3l66.5,17.1
			l72.6-17.1c39.3-9.3,79.6-17.1,89.5-17.1c9.3,0,54.9,12.4,100.3,27c106.6,34,143.8,41.8,234.9,50.2c47.9,3.8,83.4,11.4,98.2,20.1
			c22.4,13.1,25.4,13.1,46.4,0.8c20.1-11.4,24.7-12.4,51.1-0.8c23.2,9.3,54.9,11.4,155.4,9.9c85.7-1.5,129.8,0.8,135.3,6.1
			c13.9,13.9,0.8,49.6-29.3,76.4c-26.4,24.7-27,26.4-17.7,49.6c13.9,33.2,5.3,127.5-18.6,207.8c-10.8,35.6-17.7,67.2-15.4,71.1
			c2.3,4,10.8,7,19.2,7c23.2,0,45.6,27.9,45.6,57.2c0,32.5-6.1,37.1-61,43.9c-47.1,7-54.9,13.9-75.8,67.2
			c-9.9,27-10.8,38.6-3.8,57.2c10.8,30,3.8,46.4-43.9,104.3c-53.2,64.2-81.1,74.9-167,64.2c-74.9-9.3-99.6-17.1-162.3-51.1
			c-85.1-46.4-156-56.4-260.5-37.8c-17.7,3.8-55.7,0-96.7-7.8c-83.4-16.1-138.3-11.4-234.1,19.2c-38.6,13.1-91.2,28.5-118.2,34.7
			c-42.4,9.3-51.7,15.4-84.2,51.7c-29.3,32.5-38.6,38.6-46.4,31c-13.1-13.1-53.2-11.4-74.3,3.1c-9.9,7-26.4,25.4-37.1,42.4
			C10587.1,7569.8,10580.1,7571.5,10522.9,7559z"/>
		<path class="st0" d="M8853.9,7447c-20.7-6.1-62.5-14.6-92-18.6c-41-4.6-56.4-9.9-66.5-23.2c-9.3-12.4-24.7-17.7-65-23.2
			c-47.9-6.1-102.8-31.7-117.4-55.7c-2.3-3.2-19.2-6.1-37.8-6.1c-45.6,0-57.9-6.1-57.9-27.9c0-9.9-9.9-29.3-22.4-43.9
			c-12.4-13.9-25.4-37.1-29.3-51.7c-4.6-17.1-12.4-27.9-22.4-30c-7.8-1.5-17.1-6.1-20.1-11.4c-11.4-17.7-5.3-64.2,13.1-102
			c23.9-47.9,49.6-72.6,82.7-80.4l25.4-6.1l-24.7-5.3c-47.1-10.8-51.1-36.3-12.4-81.1c19.2-23.2,19.2-23.2,102.8-23.2
			c46.4,0,102.8-3.8,125.2-8.5c53.2-10.8,172.3-68.8,214.1-104.3c17.7-15.4,34-26.4,36.3-23.9c7,7-13.1,61.8-31.7,87.4
			c-17.7,23.2-52.6,48.6-146.7,108.1l-46.4,28.5l25.4,7c25.4,7,25.4,7,13.1,26.4c-7,10.8-11.4,27-9.9,36.3
			c2.3,14.6,7,17.1,35.6,15.4c27.9-1.5,33.2,0.8,31,11.4c-1.5,7-9.3,13.9-17.7,15.4c-23.9,4.6-40.3,23.2-44.9,52.6
			c-2.3,14.6-11.4,36.3-20.1,48.6c-20.7,29.3-20.1,47.1,3.8,95l20.1,40.3l17.1-34.7c13.9-29.3,19.2-34,43.9-36.3
			c47.9-3.8,66.5,8.5,71.8,47.1c3.1,19.2,12.4,41,20.7,47.9c17.7,17.1,139.1,41.8,201,42.4c23.2,0,61-5.3,83.4-12.4
			c22.4-6.1,53.2-10.8,68.8-9.3c27,2.3,28.5,3.8,27,29.3c-1.5,34-18.6,46.4-64.2,46.4c-44.9,0-112.7,12.4-176.9,31.7
			C8933.5,7461.7,8907.3,7462.5,8853.9,7447z"/>
		<path class="st0" d="M6494.2,7345.2c-60.4-30-64.2-40.3-46.4-105.9c17.7-67.2,18.6-117.4,1.5-176.9l-13.1-45.6l30-26.4
			c36.3-31.7,45.6-31.7,71.1-2.3c10.8,13.1,25.4,22.4,32.5,21.7c19.2-3.2,43.9,54.2,54.9,127.5c11.4,74.9,3.1,127.5-29.3,187
			C6570,7371.4,6552.9,7375.2,6494.2,7345.2z"/>
		<path class="st0" d="M8529.3,6816.6c-8.5-4.6-34-22.4-56.4-39.3l-40.3-31l47.1-49.6c38.6-40.3,46.4-52.6,41.8-66.5
			c-12.4-39.3-12.4-56.4-0.8-66.5c8.5-7,15.4-7.8,27.9-0.8c23.9,13.1,35.6,5.3,57.9-38.6c10.8-20.7,22.4-38.6,26.4-38.6
			s10.8,9.9,16.1,23.2c10.8,25.4,26.4,30,37.1,9.9c4.6-7.8,12.4-10.8,20.1-7.8c19.2,7.8,15.4,54.9-11.4,115.2
			c-13.1,29.3-21.7,55.7-19.2,57.9c2.3,2.3,21.7-3.1,43.3-12.4c45.6-19.2,79.6-19.2,83.4,1.5c2.3,9.9-2.3,13.1-20.1,13.1
			c-13.9,0-28.5,7.8-41,20.1c-33.2,35.6-136,100.3-180.9,113.6C8551.8,6823.4,8537.9,6821.2,8529.3,6816.6z"/>
		<path class="st0" d="M7167.2,6775.6c-10.8-7.8-24.7-11.4-35.6-8.5c-9.9,2.3-23.9-0.8-32.5-7c-13.9-11.4-13.1-13.1,23.2-47.1
			c41-37.1,167-103.5,197.8-103.5c24.7,0,65-24.7,81.1-49.6c7-9.9,22.4-22.4,34.7-27.9c19.2-7.8,26.4-7.8,42.4,3.2
			c26.4,17.1,31.7,44.9,15.4,85.7c-13.9,37.8-9.3,67.2,20.1,115.9c18.6,29.3,18.6,50.2,1.5,50.2c-7.8,0-57.9-5.3-111.3-10.8
			c-57.2-6.1-110.6-7.8-131.3-4.6c-18.6,3.8-46.4,8.5-61,11.4C7192.8,6786.4,7179.7,6784.1,7167.2,6775.6z"/>
		<path class="st0" d="M8842.3,6271.1c0-9.3,34.7-20.7,84.2-28.5c18.6-3.2,49.6-13.9,68.8-23.9c63.5-33.2,167-17.7,122.9,18.6
			C9095,6256.5,8842.3,6287.3,8842.3,6271.1z"/>
	</g>
</g>
<g id="variant5">
	<path id="toAustria" class="st1" d="M705.5,501.8c14.6-11.7,25.4-28.1,30.3-46.2c5.1-18.8,4.5-40.2,16.4-55.7"/>
	<path id="toLatvia" class="st1" d="M705.5,505.8c19.5-8.1,27.3-21.9,38-39.7c17.8-29.7,37.1-60.6,50.5-91.3
		c25.5-58.6,32.9-124.2,71.7-176.8c10.4-14.2,25.2-28.2,44.3-29.1"/>
	<path id="toLithuania" class="st1" d="M708.1,502c8.1,1.5,16.2-2.5,23.4-6.5c37.1-21,70.6-49.9,91.8-86.8
		c24.1-42,20.8-94.6,36.7-140.4c7.1-20.5,16.5-40.7,30-57.6"/>
</g>
<g id="variant4">
	<path id="toDenmark" class="st2" d="M702.3,504.2c-19.2-30.3-43.1-57.9-57.6-90.7c-15.4-35.2-19.2-74.7-15.1-112.9
		s15.5-75.3,29.3-111.1"/>
	<path id="toNorway" class="st2" d="M706.8,504.4c-55.9-27.5-86.5-91.2-92-153c-5.3-62,10.4-123.7,26-183.9
		c9.9-38.1,10.6-79.1,4.6-118.2"/>
	<path id="toNetherlands" class="st2" d="M705.7,504c-15.4-2.3-29-10.8-41.9-19.4c-38.1-25.7-54.9-71.3-65.3-116.2
		c-5.3-23.2-4.8-47.9,2-70.8"/>
	<path id="toCzech" class="st2" d="M706.6,503.6c19.1-21.9,21.1-49.4,23.2-75.6c2-26.2,5.3-53.9,26.2-74.8"/>
</g>
<g id="variant3">
	<path id="toPoland" class="st3" d="M703.5,501.9c34.2-21.7,52.6-61,65-99.5c12.5-38.5,21.3-79,43.6-112.8"/>
	<path id="toSlovakia" class="st3" d="M707.7,501.5c18.1-6,32.3-19.9,42.8-35.1s18.1-32.1,27.5-48s21.2-31.2,37.6-40.6"/>
	<path id="toSerbia" class="st3" d="M706.7,505.5c33.5,0.9,68.1,1.6,99.2-10.9c9.4-3.8,18.5-8.7,28.6-9.4"/>
	<path id="toBelarus" class="st3" d="M703.8,501.9c19.6,2.6,38.5-7.5,55-18.3c30.4-19.8,59-43.6,78.2-74.4
		c11.7-18.8,19.6-39.8,29.4-59.7c14.4-29.2,33-56.3,55-80.2c7.1-7.7,15.6-15.5,26-15.9"/>
	<path id="toBulgaria" class="st3" d="M707.1,503.9c46.5,21.5,100.9,27.3,151.4,16.2c15.3-3.4,30.4-8.3,46.1-9.6"/>
</g>
<g id="variant2">
	<path id="toEngland" class="st4" d="M706.8,503.9c-47.9-0.8-95.7-25-122-65c-18.4-28-25.9-61.7-37.5-93s-29.8-63.3-60.5-76.9"/>
	<path id="toIreland" class="st4" d="M706.8,500.2c-60.9,13.1-128.7,15.8-180.2-22c-32.7-24-54.9-61.4-73.9-99.1
		s-36.1-77.2-62.1-109.6"/>
	<path id="toBelgium" class="st4" d="M706.8,504.4c-20-3.5-39-12-54.9-24.6c-7.8-6.2-14.9-13.4-21.4-20.9
		c-31.8-36.9-51.5-85-49.5-133.5"/>
	<path id="toCroatia" class="st4" d="M706.8,499.9c5.8,1.2,11.6-1.6,16.8-4.3C736.2,489,749,482,758,471.3c7-8.2,11.4-18.1,18.6-26"
		/>
	<path id="toSlovenia" class="st4" d="M707.8,502c8.8-9.6,17.6-19.5,24.7-30.5c7.2-11,12.7-23.2,14.5-36.2"/>
	<path id="toSweden" class="st4" d="M704.2,503.4c13.6-35.2,17.8-73.9,12.2-111.2c-9-59.5-42.4-117.1-31-176.2
		c8.9-45.8,26.4-91.9,58.1-126.1"/>
</g>
<g id="variant1">
	<path id="toRomania" class="st5" d="M707.5,506.5c41.8-7.1,84-15.9,121.7-35.3c23-11.8,44.6-27.5,70-32.7"/>
	<path id="toFrance" class="st5" d="M705.5,505.8c-49.3,0.9-98.7-16.7-136.3-48.6c-9.1-7.7-17.6-16.3-28.2-21.7"/>
	<path id="toPortugal" class="st5" d="M705.5,504.9c-73.1,26.7-151.3,52.5-237.7,57.1c-26.4,1.5-54.3,0.6-77.3-6.8"/>
	<path id="toSpain" class="st5" d="M704.2,506.6c-57.4,36.3-118.7,71.3-186.5,77.6c-20.7,2-42.6,0.8-60.7-9.3"/>
	<path id="toGreece" class="st5" d="M707.3,506.1C748.6,541.2,800.2,564,854,571"/>
	<path id="toGermany" class="st5" d="M705.5,504.9c-0.5-5.8-2.3-11.4-4.8-16.7c-9.6-23-22.7-44.6-30.5-68.3
		c-8-23.7-9.9-50.9,2.2-72.8"/>
	<path id="toUkraine" class="st5" d="M707,505.1c40.5-6.4,81.1-19.1,113-44.9c13.1-10.6,24.4-23.2,36-35.5
		c18.9-19.9,38.8-39.2,62.3-53.4s51-23,78.3-20.3"/>
</g>
<circle id="England" class="st6" cx="487.4" cy="269.5" r="5.6"/>
<circle id="Norway" class="st7" cx="645.3" cy="46.1" r="5.6"/>
<circle id="Netherlands" class="st7" cx="600.7" cy="298.1" r="5.6"/>
<circle id="Czech" class="st7" cx="756.1" cy="353.5" r="5.6"/>
<circle id="Finland" class="st6" cx="745.5" cy="89.9" r="5.6"/>
<circle id="Spain" class="st8" cx="456.9" cy="575.4" r="5.6"/>
<circle id="Portugal" class="st8" cx="388.1" cy="552.4" r="5.6"/>
<circle id="France" class="st8" cx="538.8" cy="434" r="5.6"/>
<circle id="Ireleand" class="st6" cx="390.5" cy="269.5" r="5.6"/>
<circle id="Poland" class="st9" cx="814.7" cy="288" r="5.6"/>
<circle id="Romania" class="st8" cx="902" cy="438.3" r="5.6"/>
<circle id="Ukraine" class="st8" cx="996.5" cy="352.3" r="5.6"/>
<circle id="Belarus" class="st9" cx="949.9" cy="253.2" r="5.6"/>
<circle id="Austria" cx="750.5" cy="400.9" r="5.6"/>
<circle id="Belgium" class="st6" cx="580.5" cy="326.4" r="5.6"/>
<circle id="Denmark" class="st7" cx="660.3" cy="187.9" r="5.6"/>
<circle id="Slovakia" class="st9" cx="815.6" cy="377.9" r="5.6"/>
<circle id="Croatia" class="st6" cx="777.8" cy="446.1" r="5.6"/>
<circle id="Slovenia" class="st6" cx="746.8" cy="435.6" r="5.6"/>
<circle id="Serbia" class="st9" cx="835.6" cy="483.5" r="5.6"/>
<circle id="Lithuania" cx="889" cy="211.5" r="5.6"/>
<circle id="Latvia" cx="910.1" cy="170.5" r="5.6"/>
<circle id="Germany" class="st8" cx="673.3" cy="346.9" r="5.6"/>
<circle id="Bulgaria" class="st9" cx="904.5" cy="510.8" r="5.6"/>
<circle id="Greece" class="st8" cx="854" cy="571.1" r="5.6"/>
<circle id="Italy" cx="705.5" cy="504.1" r="8.4"/>
</svg>
